<?xml version="1.0" encoding="UTF-8" standalone="no"?>
<!-- Created with Inkscape (http://www.inkscape.org/) -->

<svg
   width="167.6245mm"
   height="55.84853mm"
   viewBox="0 0 167.6245 55.848529"
   version="1.1"
   id="svg1"
   sodipodi:docname="cauchy_sequence.svg"
   inkscape:version="1.3 (0e150ed6c4, 2023-07-21)"
   xmlns:inkscape="http://www.inkscape.org/namespaces/inkscape"
   xmlns:sodipodi="http://sodipodi.sourceforge.net/DTD/sodipodi-0.dtd"
   xmlns="http://www.w3.org/2000/svg"
   xmlns:svg="http://www.w3.org/2000/svg"
   xmlns:ns1="http://www.iki.fi/pav/software/textext/">
  <sodipodi:namedview
     id="namedview1"
     pagecolor="#505050"
     bordercolor="#eeeeee"
     borderopacity="1"
     inkscape:showpageshadow="0"
     inkscape:pageopacity="0"
     inkscape:pagecheckerboard="0"
     inkscape:deskcolor="#505050"
     inkscape:document-units="mm"
     showgrid="true"
     inkscape:zoom="2.0989208"
     inkscape:cx="445.46703"
     inkscape:cy="95.048848"
     inkscape:window-width="1920"
     inkscape:window-height="1009"
     inkscape:window-x="-8"
     inkscape:window-y="-8"
     inkscape:window-maximized="1"
     inkscape:current-layer="layer2">
    <inkscape:grid
       id="grid1"
       units="mm"
       originx="-52.837696"
       originy="-42.618378"
       spacingx="1"
       spacingy="20"
       empcolor="#0099e5"
       empopacity="0.30196078"
       color="#0099e5"
       opacity="0.14901961"
       empspacing="5"
       dotted="true"
       gridanglex="30"
       gridanglez="30"
       visible="true"
       snapvisiblegridlinesonly="true"
       enabled="false" />
  </sodipodi:namedview>
  <defs
     id="defs1">
    <marker
       style="overflow:visible"
       id="Triangle_Fnone_S-81c7da"
       refX="0"
       refY="0"
       orient="auto-start-reverse"
       inkscape:stockid="Triangle arrow"
       markerWidth="1"
       markerHeight="1"
       viewBox="0 0 1 1"
       inkscape:isstock="true"
       inkscape:collect="always"
       preserveAspectRatio="xMidYMid">
      <path
         transform="scale(0.5)"
         style="fill:#81c7da;fill-rule:evenodd;stroke:#81c7da;stroke-width:1pt"
         d="M 5.77,0 -2.88,5 V -5 Z"
         id="path1" />
    </marker>
    <marker
       style="overflow:visible"
       id="Triangle_Fnone_S-81c7da_reversed"
       refX="0"
       refY="0"
       orient="auto"
       inkscape:stockid="Triangle arrow"
       markerWidth="1"
       markerHeight="1"
       viewBox="0 0 1 1"
       inkscape:isstock="true"
       inkscape:collect="always"
       preserveAspectRatio="xMidYMid">
      <g
         transform="scale(-1)"
         id="g2">
        <path
           transform="scale(0.5)"
           style="fill:#81c7da;fill-rule:evenodd;stroke:#81c7da;stroke-width:1pt"
           d="M 5.77,0 -2.88,5 V -5 Z"
           id="path2" />
      </g>
    </marker>
  </defs>
  <g
     inkscape:groupmode="layer"
     id="layer2"
     inkscape:label="Layer 2"
     transform="translate(5.9200293,8.7238985)">
    <rect
       style="fill:#272727;fill-opacity:1;stroke:none;stroke-width:0.2;stroke-dasharray:none;stroke-opacity:1"
       id="rect4"
       width="167.42448"
       height="55.648529"
       x="-5.8200293"
       y="-8.6238985" />
  </g>
  <g
     inkscape:groupmode="layer"
     id="layer3"
     inkscape:label="Layer 3">
    <rect
       style="fill:#3924ca;fill-opacity:0.421941;stroke:none;stroke-width:0.2;stroke-dasharray:1.2, 1.2;paint-order:markers stroke fill"
       id="rect1"
       width="56.222496"
       height="55.84853"
       x="111.402"
       y="-1.0867859e-14" />
  </g>
  <g
     inkscape:label="Layer 1"
     inkscape:groupmode="layer"
     id="layer1"
     transform="translate(-13.980001,-11.276121)">
    <path
       style="fill:none;stroke:#81c7da;stroke-width:0.4;stroke-dasharray:none;stroke-opacity:1;marker-start:url(#Triangle_Fnone_S-81c7da_reversed);marker-end:url(#Triangle_Fnone_S-81c7da)"
       d="M 20,19.999999 V 59.999998 H 171.92835"
       id="path3" />
    <path
       style="fill:none;stroke:#81c7da;stroke-width:0.4;stroke-dasharray:none;stroke-opacity:1"
       d="m 25.381999,40.804813 5,-17.309766 5.000001,4.41199 5.000001,10.840889 4.999997,4.538046 5.000001,-5.672558 5,4.511169 5.000001,12.047071 5,2.904556 5.000001,-12.907839 4.999998,-6.05073 5,-2.269022 5.000001,3.025363 5,0.504229 5.000001,3.781706 4.999999,-0.252116 5,-0.630283 5,-1.472705 5,-1.678718 5,1.032111 5,0.08913 5,1.292466 5,-0.133702 5,-0.133705 5,-0.980492 5,0.512905 h 5 5 5"
       id="path4"
       sodipodi:nodetypes="ccccccccccccccccccccccccccccc" />
    <path
       style="fill:none;fill-opacity:1;stroke:#e28577;stroke-width:0.2;stroke-dasharray:1.2, 1.2;stroke-dashoffset:0;stroke-opacity:1"
       d="m 165.382,38.619442 h -40"
       id="path5" />
    <path
       style="fill:#272727;fill-opacity:1;stroke:#e28577;stroke-width:0.2;stroke-dasharray:1.2, 1.2;stroke-dashoffset:0;stroke-opacity:1"
       d="m 165.382,43.016272 h -40"
       id="path5-7" />
    <path
       style="fill:none;fill-opacity:0.421941;stroke:#b0a8e2;stroke-width:0.4;stroke-dasharray:none;paint-order:markers stroke fill;stroke-opacity:1;stroke-dashoffset:0"
       d="M 111.402,0 V 55.84853"
       id="path6"
       transform="translate(13.980001,11.276121)" />
    <g
       transform="matrix(0.45687479,0,0,0.45687479,166.33974,38.543802)"
       ns1:version="1.9.0"
       ns1:texconverter="pdflatex"
       ns1:pdfconverter="inkscape"
       ns1:text="$\\textbf{\\}}$"
       ns1:preamble="C:\Users\phucn\AppData\Roaming\inkscape\extensions\textext\default_packages.tex"
       ns1:scale="0.8142578566196823"
       ns1:alignment="middle center"
       ns1:stroke-to-path="0"
       id="g2854"
       ns1:jacobian_sqrt="0.287252"
       style="fill:#e28577;fill-opacity:1;stroke-width:0.628733">
      <defs
         id="id-6eaf6124-67a5-4fa7-b728-2ebc3fd2c379" />
      <g
         fill="#000000"
         fill-opacity="1"
         id="id-b76cac21-2d3a-40f9-afcd-7a474e90255a"
         transform="translate(-149.493,-127.281)"
         style="fill:#e28577;fill-opacity:1;stroke-width:0.628733">
        <g
           transform="translate(148.712,134.765)"
           id="g7709"
           style="fill:#e28577;fill-opacity:1;stroke-width:0.628733">
          <path
             d="m 2.3125,-4.515625 c 0,0.328125 0,0.875 0.015625,0.984375 C 2.40625,-2.953125 2.96875,-2.625 3.484375,-2.5 v 0.015625 c -0.46875,0.125 -1.078125,0.4375 -1.15625,1.0625 C 2.3125,-1.34375 2.3125,-1.328125 2.3125,-1.03125 V 1.0625 c 0,0.1875 0,0.5 -0.359375,0.765625 C 1.6875,2.03125 1.34375,2.109375 1,2.140625 c -0.125,0 -0.21875,0 -0.21875,0.171875 C 0.78125,2.5 0.875,2.5 1.09375,2.5 2.640625,2.5 3.40625,1.921875 3.421875,1.21875 V -0.8125 c 0,-0.640625 0,-0.8125 0.28125,-1.09375 C 4,-2.203125 4.390625,-2.296875 4.71875,-2.3125 4.859375,-2.328125 4.9375,-2.328125 4.9375,-2.5 4.9375,-2.609375 4.890625,-2.65625 4.78125,-2.671875 3.796875,-2.71875 3.5,-3.25 3.4375,-3.53125 3.421875,-3.640625 3.421875,-3.71875 3.421875,-3.84375 V -5.9375 c 0,-0.375 0,-0.921875 -0.75,-1.25 -0.5625,-0.265625 -1.265625,-0.296875 -1.578125,-0.296875 -0.21875,0 -0.3125,0 -0.3125,0.1875 0,0.109375 0.03125,0.171875 0.171875,0.171875 0.90625,0.0625 1.265625,0.46875 1.34375,0.8125 C 2.3125,-6.234375 2.3125,-6.140625 2.3125,-6.015625 Z m 0,0"
             id="id-bf56b2c8-6202-4c09-8d45-33f21c37448d"
             style="fill:#e28577;fill-opacity:1;stroke-width:0.628733" />
        </g>
      </g>
    </g>
    <g
       transform="matrix(0.59370185,0,0,0.59370185,17.885364,12.882741)"
       ns1:version="1.9.0"
       ns1:texconverter="pdflatex"
       ns1:pdfconverter="inkscape"
       ns1:text="$\\mathcal{X}$"
       ns1:preamble="C:\Users\phucn\AppData\Roaming\inkscape\extensions\textext\default_packages.tex"
       ns1:scale="0.8142578566196823"
       ns1:alignment="middle center"
       ns1:stroke-to-path="0"
       id="g7564"
       ns1:jacobian_sqrt="0.287252"
       style="fill:#81c7da;fill-opacity:1;stroke-width:0.483832">
      <defs
         id="id-6353adf4-b37d-4520-a878-513ba50599b9" />
      <g
         fill="#000000"
         fill-opacity="1"
         id="id-cbfce8ce-e51e-4a0b-aa83-a1c43d58badd"
         transform="translate(-149.212,-127.953)"
         style="fill:#81c7da;fill-opacity:1;stroke-width:0.483832">
        <g
           transform="translate(148.712,134.765)"
           id="g1369"
           style="fill:#81c7da;fill-opacity:1;stroke-width:0.483832">
          <path
             d="M 4.78125,-5.5 C 4.6875,-6.234375 4.59375,-6.8125 3.890625,-6.8125 c -0.9375,0 -1.59375,0.6875 -1.59375,0.953125 0,0.078125 0.0625,0.078125 0.109375,0.078125 0.109375,0 0.546875,-0.125 0.734375,-0.46875 L 3.15625,-6.265625 c 0.546875,0 0.6875,0.3125 0.78125,1.34375 l 0.140625,1.46875 c -0.359375,0.1875 -1.703125,1 -2.421875,1.5 C 0.515625,-1.140625 0.5,-0.84375 0.5,-0.5625 0.5,-0.21875 0.671875,0 0.984375,0 c 0.296875,0 0.75,-0.328125 0.75,-0.484375 0,-0.046875 -0.03125,-0.046875 -0.0625,-0.0625 C 1.578125,-0.5625 1.34375,-0.59375 1.34375,-0.984375 c 0,-0.265625 0,-0.390625 1.0625,-1.09375 0.609375,-0.40625 1.1875,-0.71875 1.703125,-1.046875 0,0.015625 0.140625,1.515625 0.171875,1.671875 C 4.359375,-0.65625 4.421875,0 5.15625,0 c 0.953125,0 1.609375,-0.671875 1.609375,-0.953125 0,-0.078125 -0.0625,-0.078125 -0.109375,-0.078125 -0.109375,0 -0.546875,0.140625 -0.734375,0.46875 -0.03125,0.015625 -0.078125,0.015625 -0.09375,0.015625 -0.578125,0 -0.640625,-0.625 -0.71875,-1.46875 C 5.078125,-2.328125 5.046875,-2.59375 4.953125,-3.625 8.0625,-5.484375 8.0625,-5.828125 8.0625,-6.25 c 0,-0.34375 -0.1875,-0.5625 -0.46875,-0.5625 -0.3125,0 -0.78125,0.34375 -0.78125,0.484375 0,0.0625 0.0625,0.0625 0.078125,0.0625 0.078125,0.015625 0.3125,0.0625 0.3125,0.4375 0,0.25 -0.03125,0.40625 -0.875,0.984375 -0.296875,0.203125 -0.71875,0.453125 -1.40625,0.875 z m 0,0"
             id="id-4265e687-5abf-481c-a651-e48d5213a673"
             style="fill:#81c7da;fill-opacity:1;stroke-width:0.483832" />
        </g>
      </g>
    </g>
    <g
       transform="matrix(0.46504249,0,0,0.46504249,153.65461,26.118214)"
       ns1:version="1.9.0"
       ns1:texconverter="pdflatex"
       ns1:pdfconverter="inkscape"
       ns1:text="\\noindent Arbitrarily\\\\\nsmall region"
       ns1:preamble="C:\Users\phucn\AppData\Roaming\inkscape\extensions\textext\default_packages.tex"
       ns1:scale="0.8142578566196823"
       ns1:alignment="middle center"
       ns1:stroke-to-path="0"
       id="g8055"
       ns1:jacobian_sqrt="0.287252"
       style="fill:#e28577;fill-opacity:1;stroke-width:0.61769">
      <defs
         id="id-a45791e4-a9cb-4a9d-9d71-37bab39c45f3" />
      <g
         fill="#000000"
         fill-opacity="1"
         id="id-4d6981b4-db45-4246-9eec-50498ceab8e0"
         transform="translate(-134.081,-127.624)"
         style="fill:#e28577;fill-opacity:1;stroke-width:0.61769">
        <g
           transform="translate(133.768,134.765)"
           id="g6869"
           style="fill:#e28577;fill-opacity:1;stroke-width:0.61769">
          <path
             d="m 3.96875,-6.9375 c -0.046875,-0.125 -0.078125,-0.203125 -0.234375,-0.203125 -0.15625,0 -0.1875,0.0625 -0.234375,0.203125 L 1.4375,-0.984375 C 1.25,-0.46875 0.859375,-0.3125 0.3125,-0.3125 V 0 c 0.234375,-0.015625 0.671875,-0.03125 1.015625,-0.03125 0.3125,0 0.828125,0.015625 1.15625,0.03125 v -0.3125 c -0.5,0 -0.75,-0.25 -0.75,-0.5 0,-0.03125 0.015625,-0.140625 0.015625,-0.15625 L 2.21875,-2.265625 H 4.671875 L 5.203125,-0.75 c 0.015625,0.046875 0.03125,0.109375 0.03125,0.140625 0,0.296875 -0.5625,0.296875 -0.828125,0.296875 V 0 c 0.359375,-0.03125 1.0625,-0.03125 1.4375,-0.03125 0.421875,0 0.890625,0.015625 1.296875,0.03125 V -0.3125 H 6.96875 C 6.375,-0.3125 6.234375,-0.375 6.125,-0.703125 Z m -0.53125,1.109375 1.125,3.25 H 2.328125 Z m 0,0"
             id="id-7f404b2b-9d58-43ab-a43e-1d6f8663fabd"
             style="fill:#e28577;fill-opacity:1;stroke-width:0.61769" />
        </g>
        <g
           transform="translate(141.24,134.765)"
           id="g7799"
           style="fill:#e28577;fill-opacity:1;stroke-width:0.61769">
          <path
             d="M 1.671875,-3.3125 V -4.40625 L 0.28125,-4.296875 v 0.3125 c 0.703125,0 0.78125,0.0625 0.78125,0.5625 V -0.75 c 0,0.4375 -0.109375,0.4375 -0.78125,0.4375 V 0 c 0.390625,-0.015625 0.859375,-0.03125 1.140625,-0.03125 0.390625,0 0.859375,0 1.265625,0.03125 V -0.3125 H 2.46875 c -0.734375,0 -0.75,-0.109375 -0.75,-0.46875 V -2.3125 c 0,-0.984375 0.421875,-1.875 1.171875,-1.875 0.0625,0 0.09375,0 0.109375,0.015625 -0.03125,0 -0.234375,0.125 -0.234375,0.390625 0,0.265625 0.21875,0.421875 0.4375,0.421875 0.171875,0 0.421875,-0.125 0.421875,-0.4375 0,-0.3125 -0.3125,-0.609375 -0.734375,-0.609375 -0.734375,0 -1.09375,0.671875 -1.21875,1.09375 z m 0,0"
             id="id-73e0f195-226c-435e-9ee6-1ef15e39c5f4"
             style="fill:#e28577;fill-opacity:1;stroke-width:0.61769" />
        </g>
        <g
           transform="translate(145.142,134.765)"
           id="g3278"
           style="fill:#e28577;fill-opacity:1;stroke-width:0.61769">
          <path
             d="m 1.71875,-3.765625 v -3.15625 L 0.28125,-6.8125 V -6.5 c 0.703125,0 0.78125,0.0625 0.78125,0.5625 V 0 h 0.25 c 0,-0.015625 0.078125,-0.15625 0.359375,-0.625 0.140625,0.234375 0.5625,0.734375 1.296875,0.734375 1.1875,0 2.21875,-0.984375 2.21875,-2.265625 0,-1.265625 -0.96875,-2.25 -2.109375,-2.25 -0.78125,0 -1.203125,0.46875 -1.359375,0.640625 z m 0.03125,2.625 V -3.1875 c 0,-0.1875 0,-0.203125 0.109375,-0.359375 C 2.25,-4.109375 2.796875,-4.1875 3.03125,-4.1875 c 0.453125,0 0.8125,0.265625 1.046875,0.640625 0.265625,0.40625 0.28125,0.96875 0.28125,1.390625 0,0.359375 -0.015625,0.953125 -0.296875,1.40625 -0.21875,0.3125 -0.59375,0.640625 -1.125,0.640625 -0.453125,0 -0.8125,-0.234375 -1.046875,-0.609375 C 1.75,-0.921875 1.75,-0.953125 1.75,-1.140625 Z m 0,0"
             id="id-2bf73617-9128-4094-a3ff-46946d7c0a66"
             style="fill:#e28577;fill-opacity:1;stroke-width:0.61769" />
        </g>
        <g
           transform="translate(150.678,134.765)"
           id="g4388"
           style="fill:#e28577;fill-opacity:1;stroke-width:0.61769">
          <path
             d="M 1.765625,-4.40625 0.375,-4.296875 v 0.3125 c 0.640625,0 0.734375,0.0625 0.734375,0.546875 V -0.75 c 0,0.4375 -0.109375,0.4375 -0.78125,0.4375 V 0 C 0.640625,-0.015625 1.1875,-0.03125 1.421875,-0.03125 1.78125,-0.03125 2.125,-0.015625 2.46875,0 v -0.3125 c -0.671875,0 -0.703125,-0.046875 -0.703125,-0.4375 z m 0.03125,-1.734375 c 0,-0.3125 -0.234375,-0.53125 -0.515625,-0.53125 -0.3125,0 -0.53125,0.265625 -0.53125,0.53125 0,0.265625 0.21875,0.53125 0.53125,0.53125 0.28125,0 0.515625,-0.21875 0.515625,-0.53125 z m 0,0"
             id="id-15735b0c-d89a-433e-bfab-e5b5b76b19e8"
             style="fill:#e28577;fill-opacity:1;stroke-width:0.61769" />
        </g>
        <g
           transform="translate(153.445,134.765)"
           id="g2414"
           style="fill:#e28577;fill-opacity:1;stroke-width:0.61769">
          <path
             d="m 1.71875,-3.984375 h 1.4375 v -0.3125 H 1.71875 V -6.125 h -0.25 c 0,0.8125 -0.296875,1.875 -1.28125,1.921875 v 0.21875 h 0.84375 v 2.75 c 0,1.21875 0.9375,1.34375 1.296875,1.34375 0.703125,0 0.984375,-0.703125 0.984375,-1.34375 v -0.5625 h -0.25 V -1.25 c 0,0.734375 -0.296875,1.109375 -0.671875,1.109375 -0.671875,0 -0.671875,-0.90625 -0.671875,-1.078125 z m 0,0"
             id="id-aab611f0-483d-41f8-b070-b8f29c51e0d5"
             style="fill:#e28577;fill-opacity:1;stroke-width:0.61769" />
        </g>
        <g
           transform="translate(157.32,134.765)"
           id="g3624"
           style="fill:#e28577;fill-opacity:1;stroke-width:0.61769">
          <path
             d="M 1.671875,-3.3125 V -4.40625 L 0.28125,-4.296875 v 0.3125 c 0.703125,0 0.78125,0.0625 0.78125,0.5625 V -0.75 c 0,0.4375 -0.109375,0.4375 -0.78125,0.4375 V 0 c 0.390625,-0.015625 0.859375,-0.03125 1.140625,-0.03125 0.390625,0 0.859375,0 1.265625,0.03125 V -0.3125 H 2.46875 c -0.734375,0 -0.75,-0.109375 -0.75,-0.46875 V -2.3125 c 0,-0.984375 0.421875,-1.875 1.171875,-1.875 0.0625,0 0.09375,0 0.109375,0.015625 -0.03125,0 -0.234375,0.125 -0.234375,0.390625 0,0.265625 0.21875,0.421875 0.4375,0.421875 0.171875,0 0.421875,-0.125 0.421875,-0.4375 0,-0.3125 -0.3125,-0.609375 -0.734375,-0.609375 -0.734375,0 -1.09375,0.671875 -1.21875,1.09375 z m 0,0"
             id="id-ada02269-ac83-4a8c-b30c-7e656effeada"
             style="fill:#e28577;fill-opacity:1;stroke-width:0.61769" />
        </g>
        <g
           transform="translate(161.222,134.765)"
           id="g7901"
           style="fill:#e28577;fill-opacity:1;stroke-width:0.61769">
          <path
             d="m 3.3125,-0.75 c 0.046875,0.390625 0.3125,0.8125 0.78125,0.8125 0.21875,0 0.828125,-0.140625 0.828125,-0.953125 v -0.5625 h -0.25 v 0.5625 c 0,0.578125 -0.25,0.640625 -0.359375,0.640625 -0.328125,0 -0.375,-0.453125 -0.375,-0.5 v -1.984375 c 0,-0.421875 0,-0.8125 -0.359375,-1.1875 C 3.1875,-4.3125 2.6875,-4.46875 2.21875,-4.46875 c -0.828125,0 -1.515625,0.46875 -1.515625,1.125 0,0.296875 0.203125,0.46875 0.46875,0.46875 0.28125,0 0.453125,-0.203125 0.453125,-0.453125 0,-0.125 -0.046875,-0.453125 -0.515625,-0.453125 C 1.390625,-4.140625 1.875,-4.25 2.1875,-4.25 c 0.5,0 1.0625,0.390625 1.0625,1.28125 v 0.359375 c -0.515625,0.03125 -1.203125,0.0625 -1.828125,0.359375 -0.75,0.34375 -1,0.859375 -1,1.296875 0,0.8125 0.96875,1.0625 1.59375,1.0625 0.65625,0 1.109375,-0.40625 1.296875,-0.859375 z M 3.25,-2.390625 v 1 c 0,0.9375 -0.71875,1.28125 -1.171875,1.28125 -0.484375,0 -0.890625,-0.34375 -0.890625,-0.84375 0,-0.546875 0.421875,-1.375 2.0625,-1.4375 z m 0,0"
             id="id-34b77429-8236-4e87-9b61-ad253893355e"
             style="fill:#e28577;fill-opacity:1;stroke-width:0.61769" />
        </g>
        <g
           transform="translate(166.203,134.765)"
           id="g8834"
           style="fill:#e28577;fill-opacity:1;stroke-width:0.61769">
          <path
             d="M 1.671875,-3.3125 V -4.40625 L 0.28125,-4.296875 v 0.3125 c 0.703125,0 0.78125,0.0625 0.78125,0.5625 V -0.75 c 0,0.4375 -0.109375,0.4375 -0.78125,0.4375 V 0 c 0.390625,-0.015625 0.859375,-0.03125 1.140625,-0.03125 0.390625,0 0.859375,0 1.265625,0.03125 V -0.3125 H 2.46875 c -0.734375,0 -0.75,-0.109375 -0.75,-0.46875 V -2.3125 c 0,-0.984375 0.421875,-1.875 1.171875,-1.875 0.0625,0 0.09375,0 0.109375,0.015625 -0.03125,0 -0.234375,0.125 -0.234375,0.390625 0,0.265625 0.21875,0.421875 0.4375,0.421875 0.171875,0 0.421875,-0.125 0.421875,-0.4375 0,-0.3125 -0.3125,-0.609375 -0.734375,-0.609375 -0.734375,0 -1.09375,0.671875 -1.21875,1.09375 z m 0,0"
             id="id-5ea5fb46-5059-4719-838a-0c23a6aa0118"
             style="fill:#e28577;fill-opacity:1;stroke-width:0.61769" />
        </g>
        <g
           transform="translate(170.106,134.765)"
           id="g1131"
           style="fill:#e28577;fill-opacity:1;stroke-width:0.61769">
          <path
             d="M 1.765625,-4.40625 0.375,-4.296875 v 0.3125 c 0.640625,0 0.734375,0.0625 0.734375,0.546875 V -0.75 c 0,0.4375 -0.109375,0.4375 -0.78125,0.4375 V 0 C 0.640625,-0.015625 1.1875,-0.03125 1.421875,-0.03125 1.78125,-0.03125 2.125,-0.015625 2.46875,0 v -0.3125 c -0.671875,0 -0.703125,-0.046875 -0.703125,-0.4375 z m 0.03125,-1.734375 c 0,-0.3125 -0.234375,-0.53125 -0.515625,-0.53125 -0.3125,0 -0.53125,0.265625 -0.53125,0.53125 0,0.265625 0.21875,0.53125 0.53125,0.53125 0.28125,0 0.515625,-0.21875 0.515625,-0.53125 z m 0,0"
             id="id-6c604211-6792-42bc-97fe-88b32dc88c2f"
             style="fill:#e28577;fill-opacity:1;stroke-width:0.61769" />
        </g>
        <g
           transform="translate(172.873,134.765)"
           id="g8435"
           style="fill:#e28577;fill-opacity:1;stroke-width:0.61769">
          <path
             d="M 1.765625,-6.921875 0.328125,-6.8125 V -6.5 c 0.703125,0 0.78125,0.0625 0.78125,0.5625 V -0.75 c 0,0.4375 -0.109375,0.4375 -0.78125,0.4375 V 0 C 0.65625,-0.015625 1.1875,-0.03125 1.4375,-0.03125 c 0.25,0 0.734375,0.015625 1.109375,0.03125 v -0.3125 c -0.671875,0 -0.78125,0 -0.78125,-0.4375 z m 0,0"
             id="id-305a61e3-f0bf-4ccb-bad2-f74a96ef0f43"
             style="fill:#e28577;fill-opacity:1;stroke-width:0.61769" />
        </g>
        <g
           transform="translate(175.641,134.765)"
           id="g1960"
           style="fill:#e28577;fill-opacity:1;stroke-width:0.61769">
          <path
             d="m 4.140625,-3.34375 c 0.25,-0.640625 0.765625,-0.640625 0.921875,-0.640625 v -0.3125 c -0.234375,0.015625 -0.515625,0.03125 -0.75,0.03125 -0.171875,0 -0.640625,-0.015625 -0.859375,-0.03125 v 0.3125 c 0.3125,0 0.46875,0.171875 0.46875,0.421875 0,0.109375 -0.015625,0.125 -0.0625,0.25 L 2.84375,-0.875 1.75,-3.546875 C 1.703125,-3.65625 1.6875,-3.6875 1.6875,-3.734375 c 0,-0.25 0.359375,-0.25 0.5625,-0.25 v -0.3125 c -0.265625,0.015625 -0.921875,0.03125 -1.09375,0.03125 -0.265625,0 -0.671875,-0.015625 -0.96875,-0.03125 v 0.3125 c 0.484375,0 0.671875,0 0.8125,0.34375 L 2.5,0 C 2.4375,0.125 2.296875,0.453125 2.25,0.59375 2.03125,1.140625 1.75,1.828125 1.109375,1.828125 c -0.046875,0 -0.28125,0 -0.46875,-0.1875 0.3125,-0.03125 0.390625,-0.25 0.390625,-0.421875 0,-0.25 -0.1875,-0.40625 -0.421875,-0.40625 -0.203125,0 -0.421875,0.125 -0.421875,0.421875 0,0.453125 0.421875,0.8125 0.921875,0.8125 0.625,0 1.03125,-0.578125 1.265625,-1.140625 z m 0,0"
             id="id-afc74bde-0acd-4127-9b9c-eb846d415a94"
             style="fill:#e28577;fill-opacity:1;stroke-width:0.61769" />
        </g>
      </g>
      <g
         fill="#000000"
         fill-opacity="1"
         id="id-5ff6d007-0857-4104-95bb-c51dcc32b333"
         transform="translate(-134.081,-127.624)"
         style="fill:#e28577;fill-opacity:1;stroke-width:0.61769">
        <g
           transform="translate(133.768,146.72)"
           id="g551"
           style="fill:#e28577;fill-opacity:1;stroke-width:0.61769">
          <path
             d="m 2.078125,-1.9375 c 0.21875,0.046875 1.03125,0.203125 1.03125,0.921875 0,0.5 -0.34375,0.90625 -1.125,0.90625 -0.84375,0 -1.203125,-0.5625 -1.390625,-1.421875 C 0.5625,-1.65625 0.5625,-1.6875 0.453125,-1.6875 c -0.125,0 -0.125,0.0625 -0.125,0.234375 V -0.125 c 0,0.171875 0,0.234375 0.109375,0.234375 0.046875,0 0.0625,-0.015625 0.25,-0.203125 0.015625,-0.015625 0.015625,-0.03125 0.203125,-0.21875 0.4375,0.40625 0.890625,0.421875 1.09375,0.421875 1.140625,0 1.609375,-0.671875 1.609375,-1.390625 0,-0.515625 -0.296875,-0.828125 -0.421875,-0.9375 C 2.84375,-2.546875 2.453125,-2.625 2.03125,-2.703125 1.46875,-2.8125 0.8125,-2.9375 0.8125,-3.515625 c 0,-0.359375 0.25,-0.765625 1.109375,-0.765625 1.09375,0 1.15625,0.90625 1.171875,1.203125 0,0.09375 0.09375,0.09375 0.109375,0.09375 0.140625,0 0.140625,-0.046875 0.140625,-0.234375 v -1.015625 c 0,-0.15625 0,-0.234375 -0.109375,-0.234375 -0.046875,0 -0.078125,0 -0.203125,0.125 -0.03125,0.03125 -0.125,0.125 -0.171875,0.15625 -0.375,-0.28125 -0.78125,-0.28125 -0.9375,-0.28125 -1.21875,0 -1.59375,0.671875 -1.59375,1.234375 0,0.34375 0.15625,0.625 0.421875,0.84375 0.328125,0.25 0.609375,0.3125 1.328125,0.453125 z m 0,0"
             id="id-279ab9f7-f1a5-4a14-9762-de1d3864b3e9"
             style="fill:#e28577;fill-opacity:1;stroke-width:0.61769" />
        </g>
        <g
           transform="translate(137.697,146.72)"
           id="g6472"
           style="fill:#e28577;fill-opacity:1;stroke-width:0.61769">
          <path
             d="M 1.09375,-3.421875 V -0.75 c 0,0.4375 -0.109375,0.4375 -0.78125,0.4375 V 0 c 0.359375,-0.015625 0.859375,-0.03125 1.140625,-0.03125 0.25,0 0.765625,0.015625 1.109375,0.03125 v -0.3125 c -0.671875,0 -0.78125,0 -0.78125,-0.4375 V -2.59375 C 1.78125,-3.625 2.5,-4.1875 3.125,-4.1875 c 0.640625,0 0.75,0.53125 0.75,1.109375 V -0.75 c 0,0.4375 -0.109375,0.4375 -0.78125,0.4375 V 0 c 0.34375,-0.015625 0.859375,-0.03125 1.125,-0.03125 0.25,0 0.78125,0.015625 1.109375,0.03125 v -0.3125 c -0.65625,0 -0.765625,0 -0.765625,-0.4375 v -1.84375 c 0,-1.03125 0.703125,-1.59375 1.34375,-1.59375 0.625,0 0.734375,0.53125 0.734375,1.109375 V -0.75 c 0,0.4375 -0.109375,0.4375 -0.78125,0.4375 V 0 c 0.34375,-0.015625 0.859375,-0.03125 1.125,-0.03125 0.265625,0 0.78125,0.015625 1.125,0.03125 v -0.3125 c -0.515625,0 -0.765625,0 -0.78125,-0.296875 v -1.90625 c 0,-0.859375 0,-1.15625 -0.3125,-1.515625 -0.140625,-0.171875 -0.46875,-0.375 -1.046875,-0.375 -0.828125,0 -1.28125,0.59375 -1.4375,0.984375 C 4.390625,-4.296875 3.65625,-4.40625 3.203125,-4.40625 2.46875,-4.40625 2,-3.984375 1.71875,-3.359375 V -4.40625 L 0.3125,-4.296875 v 0.3125 c 0.703125,0 0.78125,0.0625 0.78125,0.5625 z m 0,0"
             id="id-c03956fa-804c-4c3e-b67b-039e56ed96d0"
             style="fill:#e28577;fill-opacity:1;stroke-width:0.61769" />
        </g>
        <g
           transform="translate(145.999,146.72)"
           id="g6172"
           style="fill:#e28577;fill-opacity:1;stroke-width:0.61769">
          <path
             d="m 3.3125,-0.75 c 0.046875,0.390625 0.3125,0.8125 0.78125,0.8125 0.21875,0 0.828125,-0.140625 0.828125,-0.953125 v -0.5625 h -0.25 v 0.5625 c 0,0.578125 -0.25,0.640625 -0.359375,0.640625 -0.328125,0 -0.375,-0.453125 -0.375,-0.5 v -1.984375 c 0,-0.421875 0,-0.8125 -0.359375,-1.1875 C 3.1875,-4.3125 2.6875,-4.46875 2.21875,-4.46875 c -0.828125,0 -1.515625,0.46875 -1.515625,1.125 0,0.296875 0.203125,0.46875 0.46875,0.46875 0.28125,0 0.453125,-0.203125 0.453125,-0.453125 0,-0.125 -0.046875,-0.453125 -0.515625,-0.453125 C 1.390625,-4.140625 1.875,-4.25 2.1875,-4.25 c 0.5,0 1.0625,0.390625 1.0625,1.28125 v 0.359375 c -0.515625,0.03125 -1.203125,0.0625 -1.828125,0.359375 -0.75,0.34375 -1,0.859375 -1,1.296875 0,0.8125 0.96875,1.0625 1.59375,1.0625 0.65625,0 1.109375,-0.40625 1.296875,-0.859375 z M 3.25,-2.390625 v 1 c 0,0.9375 -0.71875,1.28125 -1.171875,1.28125 -0.484375,0 -0.890625,-0.34375 -0.890625,-0.84375 0,-0.546875 0.421875,-1.375 2.0625,-1.4375 z m 0,0"
             id="id-8bc5e701-91db-4fed-b883-e8535270f3fe"
             style="fill:#e28577;fill-opacity:1;stroke-width:0.61769" />
        </g>
        <g
           transform="translate(150.98,146.72)"
           id="g8268"
           style="fill:#e28577;fill-opacity:1;stroke-width:0.61769">
          <path
             d="M 1.765625,-6.921875 0.328125,-6.8125 V -6.5 c 0.703125,0 0.78125,0.0625 0.78125,0.5625 V -0.75 c 0,0.4375 -0.109375,0.4375 -0.78125,0.4375 V 0 C 0.65625,-0.015625 1.1875,-0.03125 1.4375,-0.03125 c 0.25,0 0.734375,0.015625 1.109375,0.03125 v -0.3125 c -0.671875,0 -0.78125,0 -0.78125,-0.4375 z m 0,0"
             id="id-e0d147eb-8de1-4b21-bb64-c71bac4980db"
             style="fill:#e28577;fill-opacity:1;stroke-width:0.61769" />
        </g>
        <g
           transform="translate(153.748,146.72)"
           id="g5404"
           style="fill:#e28577;fill-opacity:1;stroke-width:0.61769">
          <path
             d="M 1.765625,-6.921875 0.328125,-6.8125 V -6.5 c 0.703125,0 0.78125,0.0625 0.78125,0.5625 V -0.75 c 0,0.4375 -0.109375,0.4375 -0.78125,0.4375 V 0 C 0.65625,-0.015625 1.1875,-0.03125 1.4375,-0.03125 c 0.25,0 0.734375,0.015625 1.109375,0.03125 v -0.3125 c -0.671875,0 -0.78125,0 -0.78125,-0.4375 z m 0,0"
             id="id-379f5aa2-f1cb-44f7-84a4-c55badcffebf"
             style="fill:#e28577;fill-opacity:1;stroke-width:0.61769" />
        </g>
      </g>
      <g
         fill="#000000"
         fill-opacity="1"
         id="id-19639008-6177-4ad9-a68f-bd5ecfb8d94f"
         transform="translate(-134.081,-127.624)"
         style="fill:#e28577;fill-opacity:1;stroke-width:0.61769">
        <g
           transform="translate(159.833,146.72)"
           id="g1247"
           style="fill:#e28577;fill-opacity:1;stroke-width:0.61769">
          <path
             d="M 1.671875,-3.3125 V -4.40625 L 0.28125,-4.296875 v 0.3125 c 0.703125,0 0.78125,0.0625 0.78125,0.5625 V -0.75 c 0,0.4375 -0.109375,0.4375 -0.78125,0.4375 V 0 c 0.390625,-0.015625 0.859375,-0.03125 1.140625,-0.03125 0.390625,0 0.859375,0 1.265625,0.03125 V -0.3125 H 2.46875 c -0.734375,0 -0.75,-0.109375 -0.75,-0.46875 V -2.3125 c 0,-0.984375 0.421875,-1.875 1.171875,-1.875 0.0625,0 0.09375,0 0.109375,0.015625 -0.03125,0 -0.234375,0.125 -0.234375,0.390625 0,0.265625 0.21875,0.421875 0.4375,0.421875 0.171875,0 0.421875,-0.125 0.421875,-0.4375 0,-0.3125 -0.3125,-0.609375 -0.734375,-0.609375 -0.734375,0 -1.09375,0.671875 -1.21875,1.09375 z m 0,0"
             id="id-affea3b9-5b2e-4113-994b-8c844048d49d"
             style="fill:#e28577;fill-opacity:1;stroke-width:0.61769" />
        </g>
        <g
           transform="translate(163.736,146.72)"
           id="g1894"
           style="fill:#e28577;fill-opacity:1;stroke-width:0.61769">
          <path
             d="M 1.109375,-2.515625 C 1.171875,-4 2.015625,-4.25 2.359375,-4.25 c 1.015625,0 1.125,1.34375 1.125,1.734375 z m 0,0.21875 h 2.78125 c 0.21875,0 0.25,0 0.25,-0.21875 0,-0.984375 -0.546875,-1.953125 -1.78125,-1.953125 -1.15625,0 -2.078125,1.03125 -2.078125,2.28125 0,1.328125 1.046875,2.296875 2.1875,2.296875 C 3.6875,0.109375 4.140625,-1 4.140625,-1.1875 4.140625,-1.28125 4.0625,-1.3125 4,-1.3125 c -0.078125,0 -0.109375,0.0625 -0.125,0.140625 -0.34375,1.03125 -1.25,1.03125 -1.34375,1.03125 -0.5,0 -0.890625,-0.296875 -1.125,-0.671875 -0.296875,-0.46875 -0.296875,-1.125 -0.296875,-1.484375 z m 0,0"
             id="id-e502cccb-92e2-4ba3-b0fe-81aebdc66eaf"
             style="fill:#e28577;fill-opacity:1;stroke-width:0.61769" />
        </g>
        <g
           transform="translate(168.163,146.72)"
           id="g7501"
           style="fill:#e28577;fill-opacity:1;stroke-width:0.61769">
          <path
             d="m 2.21875,-1.71875 c -0.875,0 -0.875,-1 -0.875,-1.21875 0,-0.265625 0.015625,-0.59375 0.15625,-0.84375 0.078125,-0.109375 0.3125,-0.390625 0.71875,-0.390625 0.859375,0 0.859375,0.984375 0.859375,1.21875 0,0.265625 0,0.59375 -0.15625,0.84375 C 2.84375,-2 2.609375,-1.71875 2.21875,-1.71875 Z M 1.0625,-1.328125 c 0,-0.03125 0,-0.265625 0.15625,-0.46875 0.390625,0.28125 0.8125,0.3125 1,0.3125 0.921875,0 1.609375,-0.6875 1.609375,-1.453125 0,-0.375 -0.15625,-0.734375 -0.40625,-0.96875 C 3.78125,-4.25 4.140625,-4.296875 4.3125,-4.296875 c 0.03125,0 0.078125,0 0.109375,0.015625 C 4.3125,-4.25 4.25,-4.140625 4.25,-4.015625 c 0,0.171875 0.140625,0.28125 0.296875,0.28125 0.09375,0 0.28125,-0.0625 0.28125,-0.296875 0,-0.171875 -0.109375,-0.484375 -0.5,-0.484375 -0.203125,0 -0.640625,0.0625 -1.0625,0.46875 C 2.84375,-4.375 2.4375,-4.40625 2.21875,-4.40625 c -0.9375,0 -1.625,0.6875 -1.625,1.453125 0,0.4375 0.21875,0.8125 0.46875,1.03125 -0.125,0.140625 -0.3125,0.46875 -0.3125,0.828125 0,0.3125 0.140625,0.6875 0.453125,0.890625 -0.609375,0.15625 -0.921875,0.59375 -0.921875,0.984375 0,0.71875 0.984375,1.265625 2.203125,1.265625 1.171875,0 2.203125,-0.5 2.203125,-1.28125 0,-0.34375 -0.125,-0.859375 -0.640625,-1.140625 -0.53125,-0.265625 -1.109375,-0.265625 -1.71875,-0.265625 -0.25,0 -0.671875,0 -0.75,-0.015625 C 1.265625,-0.703125 1.0625,-1 1.0625,-1.328125 Z M 2.5,1.828125 c -1.015625,0 -1.703125,-0.515625 -1.703125,-1.046875 0,-0.453125 0.375,-0.828125 0.8125,-0.84375 h 0.59375 c 0.859375,0 1.96875,0 1.96875,0.84375 0,0.546875 -0.703125,1.046875 -1.671875,1.046875 z m 0,0"
             id="id-62ce11ab-2ac7-4c9d-8ef7-1c6e4366776d"
             style="fill:#e28577;fill-opacity:1;stroke-width:0.61769" />
        </g>
        <g
           transform="translate(173.144,146.72)"
           id="g873"
           style="fill:#e28577;fill-opacity:1;stroke-width:0.61769">
          <path
             d="M 1.765625,-4.40625 0.375,-4.296875 v 0.3125 c 0.640625,0 0.734375,0.0625 0.734375,0.546875 V -0.75 c 0,0.4375 -0.109375,0.4375 -0.78125,0.4375 V 0 C 0.640625,-0.015625 1.1875,-0.03125 1.421875,-0.03125 1.78125,-0.03125 2.125,-0.015625 2.46875,0 v -0.3125 c -0.671875,0 -0.703125,-0.046875 -0.703125,-0.4375 z m 0.03125,-1.734375 c 0,-0.3125 -0.234375,-0.53125 -0.515625,-0.53125 -0.3125,0 -0.53125,0.265625 -0.53125,0.53125 0,0.265625 0.21875,0.53125 0.53125,0.53125 0.28125,0 0.515625,-0.21875 0.515625,-0.53125 z m 0,0"
             id="id-d98868a4-1be8-4916-b218-152ce340ac69"
             style="fill:#e28577;fill-opacity:1;stroke-width:0.61769" />
        </g>
        <g
           transform="translate(175.912,146.72)"
           id="g9486"
           style="fill:#e28577;fill-opacity:1;stroke-width:0.61769">
          <path
             d="M 4.6875,-2.140625 C 4.6875,-3.40625 3.703125,-4.46875 2.5,-4.46875 c -1.25,0 -2.21875,1.09375 -2.21875,2.328125 0,1.296875 1.03125,2.25 2.203125,2.25 1.203125,0 2.203125,-0.984375 2.203125,-2.25 z m -2.1875,2 c -0.4375,0 -0.875,-0.203125 -1.140625,-0.671875 -0.25,-0.4375 -0.25,-1.046875 -0.25,-1.40625 0,-0.390625 0,-0.921875 0.234375,-1.359375 C 1.609375,-4.03125 2.078125,-4.25 2.484375,-4.25 c 0.4375,0 0.859375,0.21875 1.125,0.65625 0.265625,0.421875 0.265625,1 0.265625,1.375 0,0.359375 0,0.90625 -0.21875,1.34375 C 3.421875,-0.421875 2.984375,-0.140625 2.5,-0.140625 Z m 0,0"
             id="id-0040b5c6-cd7c-4726-8d56-2e28bc8cbc23"
             style="fill:#e28577;fill-opacity:1;stroke-width:0.61769" />
        </g>
        <g
           transform="translate(180.893,146.72)"
           id="g9855"
           style="fill:#e28577;fill-opacity:1;stroke-width:0.61769">
          <path
             d="M 1.09375,-3.421875 V -0.75 c 0,0.4375 -0.109375,0.4375 -0.78125,0.4375 V 0 c 0.359375,-0.015625 0.859375,-0.03125 1.140625,-0.03125 0.25,0 0.765625,0.015625 1.109375,0.03125 v -0.3125 c -0.671875,0 -0.78125,0 -0.78125,-0.4375 V -2.59375 C 1.78125,-3.625 2.5,-4.1875 3.125,-4.1875 c 0.640625,0 0.75,0.53125 0.75,1.109375 V -0.75 c 0,0.4375 -0.109375,0.4375 -0.78125,0.4375 V 0 c 0.34375,-0.015625 0.859375,-0.03125 1.125,-0.03125 0.25,0 0.78125,0.015625 1.109375,0.03125 v -0.3125 c -0.515625,0 -0.765625,0 -0.765625,-0.296875 v -1.90625 c 0,-0.859375 0,-1.15625 -0.3125,-1.515625 -0.140625,-0.171875 -0.46875,-0.375 -1.046875,-0.375 C 2.46875,-4.40625 2,-3.984375 1.71875,-3.359375 V -4.40625 L 0.3125,-4.296875 v 0.3125 c 0.703125,0 0.78125,0.0625 0.78125,0.5625 z m 0,0"
             id="id-0a0d35aa-4ac2-4f40-9ac4-adbadaeeb720"
             style="fill:#e28577;fill-opacity:1;stroke-width:0.61769" />
        </g>
      </g>
    </g>
    <g
       transform="matrix(0.72151844,0,0,0.72151844,174.54136,58.31524)"
       ns1:version="1.9.0"
       ns1:texconverter="pdflatex"
       ns1:pdfconverter="inkscape"
       ns1:text="$n$"
       ns1:preamble="C:\Users\phucn\AppData\Roaming\inkscape\extensions\textext\default_packages.tex"
       ns1:scale="0.8142578566196823"
       ns1:alignment="middle center"
       ns1:stroke-to-path="0"
       id="g4312"
       ns1:jacobian_sqrt="0.287252"
       style="fill:#81c7da;fill-opacity:1;stroke-width:0.398122">
      <defs
         id="id-85ae565f-67f4-4761-9f97-93c65f3986e5" />
      <g
         fill="#000000"
         fill-opacity="1"
         id="id-6cc9a2d9-4223-4fb3-8e8a-de96a37136ec"
         transform="translate(-149.009,-130.359)"
         style="fill:#81c7da;fill-opacity:1;stroke-width:0.398122">
        <g
           transform="translate(148.712,134.765)"
           id="g4604"
           style="fill:#81c7da;fill-opacity:1;stroke-width:0.398122">
          <path
             d="m 0.875,-0.59375 c -0.03125,0.15625 -0.09375,0.390625 -0.09375,0.4375 0,0.171875 0.140625,0.265625 0.296875,0.265625 0.125,0 0.296875,-0.078125 0.375,-0.28125 0,-0.015625 0.125,-0.484375 0.1875,-0.734375 l 0.21875,-0.890625 C 1.90625,-2.03125 1.96875,-2.25 2.03125,-2.46875 c 0.03125,-0.171875 0.109375,-0.46875 0.125,-0.5 0.140625,-0.3125 0.671875,-1.21875 1.625,-1.21875 0.453125,0 0.53125,0.375 0.53125,0.703125 0,0.609375 -0.484375,1.890625 -0.640625,2.3125 C 3.578125,-0.9375 3.5625,-0.8125 3.5625,-0.703125 c 0,0.46875 0.359375,0.8125 0.828125,0.8125 0.9375,0 1.296875,-1.453125 1.296875,-1.53125 0,-0.109375 -0.078125,-0.109375 -0.109375,-0.109375 -0.109375,0 -0.109375,0.03125 -0.15625,0.1875 -0.203125,0.671875 -0.53125,1.234375 -1.015625,1.234375 -0.171875,0 -0.234375,-0.09375 -0.234375,-0.328125 0,-0.25 0.078125,-0.484375 0.171875,-0.703125 0.1875,-0.53125 0.609375,-1.625 0.609375,-2.203125 0,-0.65625 -0.421875,-1.0625 -1.140625,-1.0625 -0.90625,0 -1.390625,0.640625 -1.5625,0.875 -0.046875,-0.5625 -0.453125,-0.875 -0.921875,-0.875 -0.453125,0 -0.640625,0.390625 -0.734375,0.5625 C 0.421875,-3.5 0.296875,-2.90625 0.296875,-2.875 c 0,0.109375 0.09375,0.109375 0.109375,0.109375 0.109375,0 0.109375,-0.015625 0.171875,-0.234375 0.171875,-0.703125 0.375,-1.1875 0.734375,-1.1875 0.1875,0 0.296875,0.125 0.296875,0.453125 0,0.21875 -0.03125,0.328125 -0.15625,0.84375 z m 0,0"
             id="id-ac50e74c-e875-4af8-8de6-442fa1cf1647"
             style="fill:#81c7da;fill-opacity:1;stroke-width:0.398122" />
        </g>
      </g>
    </g>
  </g>
</svg>
