<?xml version="1.0" encoding="utf-8"?>
<svg xmlns="http://www.w3.org/2000/svg" xmlns:xlink="http://www.w3.org/1999/xlink" width="600" height="400" viewBox="0 0 2400 1600">
<defs>
  <clipPath id="clip990">
    <rect x="0" y="0" width="2400" height="1600"/>
  </clipPath>
</defs>
<path clip-path="url(#clip990)" d="M0 1600 L2400 1600 L2400 0 L0 0  Z" fill="#ffffff" fill-rule="evenodd" fill-opacity="1"/>
<defs>
  <clipPath id="clip991">
    <rect x="480" y="0" width="1681" height="1600"/>
  </clipPath>
</defs>
<path clip-path="url(#clip990)" d="M178.867 1486.45 L2352.76 1486.45 L2352.76 47.2441 L178.867 47.2441  Z" fill="#ffffff" fill-rule="evenodd" fill-opacity="1"/>
<defs>
  <clipPath id="clip992">
    <rect x="178" y="47" width="2175" height="1440"/>
  </clipPath>
</defs>
<polyline clip-path="url(#clip992)" style="stroke:#000000; stroke-linecap:round; stroke-linejoin:round; stroke-width:2; stroke-opacity:0.1; fill:none" points="275.901,1486.45 275.901,47.2441 "/>
<polyline clip-path="url(#clip992)" style="stroke:#000000; stroke-linecap:round; stroke-linejoin:round; stroke-width:2; stroke-opacity:0.1; fill:none" points="788.237,1486.45 788.237,47.2441 "/>
<polyline clip-path="url(#clip992)" style="stroke:#000000; stroke-linecap:round; stroke-linejoin:round; stroke-width:2; stroke-opacity:0.1; fill:none" points="1300.57,1486.45 1300.57,47.2441 "/>
<polyline clip-path="url(#clip992)" style="stroke:#000000; stroke-linecap:round; stroke-linejoin:round; stroke-width:2; stroke-opacity:0.1; fill:none" points="1812.91,1486.45 1812.91,47.2441 "/>
<polyline clip-path="url(#clip992)" style="stroke:#000000; stroke-linecap:round; stroke-linejoin:round; stroke-width:2; stroke-opacity:0.1; fill:none" points="2325.25,1486.45 2325.25,47.2441 "/>
<polyline clip-path="url(#clip990)" style="stroke:#000000; stroke-linecap:round; stroke-linejoin:round; stroke-width:4; stroke-opacity:1; fill:none" points="178.867,1486.45 2352.76,1486.45 "/>
<polyline clip-path="url(#clip990)" style="stroke:#000000; stroke-linecap:round; stroke-linejoin:round; stroke-width:4; stroke-opacity:1; fill:none" points="275.901,1486.45 275.901,1467.55 "/>
<polyline clip-path="url(#clip990)" style="stroke:#000000; stroke-linecap:round; stroke-linejoin:round; stroke-width:4; stroke-opacity:1; fill:none" points="788.237,1486.45 788.237,1467.55 "/>
<polyline clip-path="url(#clip990)" style="stroke:#000000; stroke-linecap:round; stroke-linejoin:round; stroke-width:4; stroke-opacity:1; fill:none" points="1300.57,1486.45 1300.57,1467.55 "/>
<polyline clip-path="url(#clip990)" style="stroke:#000000; stroke-linecap:round; stroke-linejoin:round; stroke-width:4; stroke-opacity:1; fill:none" points="1812.91,1486.45 1812.91,1467.55 "/>
<polyline clip-path="url(#clip990)" style="stroke:#000000; stroke-linecap:round; stroke-linejoin:round; stroke-width:4; stroke-opacity:1; fill:none" points="2325.25,1486.45 2325.25,1467.55 "/>
<path clip-path="url(#clip990)" d="M229.964 1532.02 L259.64 1532.02 L259.64 1535.95 L229.964 1535.95 L229.964 1532.02 Z" fill="#000000" fill-rule="nonzero" fill-opacity="1" /><path clip-path="url(#clip990)" d="M270.542 1544.91 L278.181 1544.91 L278.181 1518.55 L269.871 1520.21 L269.871 1515.95 L278.135 1514.29 L282.811 1514.29 L282.811 1544.91 L290.45 1544.91 L290.45 1548.85 L270.542 1548.85 L270.542 1544.91 Z" fill="#000000" fill-rule="nonzero" fill-opacity="1" /><path clip-path="url(#clip990)" d="M309.894 1517.37 Q306.283 1517.37 304.454 1520.93 Q302.649 1524.47 302.649 1531.6 Q302.649 1538.71 304.454 1542.27 Q306.283 1545.82 309.894 1545.82 Q313.528 1545.82 315.334 1542.27 Q317.163 1538.71 317.163 1531.6 Q317.163 1524.47 315.334 1520.93 Q313.528 1517.37 309.894 1517.37 M309.894 1513.66 Q315.704 1513.66 318.76 1518.27 Q321.838 1522.85 321.838 1531.6 Q321.838 1540.33 318.76 1544.94 Q315.704 1549.52 309.894 1549.52 Q304.084 1549.52 301.005 1544.94 Q297.95 1540.33 297.95 1531.6 Q297.95 1522.85 301.005 1518.27 Q304.084 1513.66 309.894 1513.66 Z" fill="#000000" fill-rule="nonzero" fill-opacity="1" /><path clip-path="url(#clip990)" d="M757.879 1532.02 L787.554 1532.02 L787.554 1535.95 L757.879 1535.95 L757.879 1532.02 Z" fill="#000000" fill-rule="nonzero" fill-opacity="1" /><path clip-path="url(#clip990)" d="M797.693 1514.29 L816.05 1514.29 L816.05 1518.22 L801.976 1518.22 L801.976 1526.7 Q802.994 1526.35 804.013 1526.19 Q805.031 1526 806.05 1526 Q811.837 1526 815.216 1529.17 Q818.596 1532.34 818.596 1537.76 Q818.596 1543.34 815.124 1546.44 Q811.651 1549.52 805.332 1549.52 Q803.156 1549.52 800.888 1549.15 Q798.642 1548.78 796.235 1548.04 L796.235 1543.34 Q798.318 1544.47 800.54 1545.03 Q802.763 1545.58 805.239 1545.58 Q809.244 1545.58 811.582 1543.48 Q813.92 1541.37 813.92 1537.76 Q813.92 1534.15 811.582 1532.04 Q809.244 1529.94 805.239 1529.94 Q803.364 1529.94 801.489 1530.35 Q799.638 1530.77 797.693 1531.65 L797.693 1514.29 Z" fill="#000000" fill-rule="nonzero" fill-opacity="1" /><path clip-path="url(#clip990)" d="M1300.57 1517.37 Q1296.96 1517.37 1295.13 1520.93 Q1293.33 1524.47 1293.33 1531.6 Q1293.33 1538.71 1295.13 1542.27 Q1296.96 1545.82 1300.57 1545.82 Q1304.21 1545.82 1306.01 1542.27 Q1307.84 1538.71 1307.84 1531.6 Q1307.84 1524.47 1306.01 1520.93 Q1304.21 1517.37 1300.57 1517.37 M1300.57 1513.66 Q1306.38 1513.66 1309.44 1518.27 Q1312.52 1522.85 1312.52 1531.6 Q1312.52 1540.33 1309.44 1544.94 Q1306.38 1549.52 1300.57 1549.52 Q1294.76 1549.52 1291.68 1544.94 Q1288.63 1540.33 1288.63 1531.6 Q1288.63 1522.85 1291.68 1518.27 Q1294.76 1513.66 1300.57 1513.66 Z" fill="#000000" fill-rule="nonzero" fill-opacity="1" /><path clip-path="url(#clip990)" d="M1803.19 1514.29 L1821.54 1514.29 L1821.54 1518.22 L1807.47 1518.22 L1807.47 1526.7 Q1808.49 1526.35 1809.51 1526.19 Q1810.52 1526 1811.54 1526 Q1817.33 1526 1820.71 1529.17 Q1824.09 1532.34 1824.09 1537.76 Q1824.09 1543.34 1820.62 1546.44 Q1817.15 1549.52 1810.83 1549.52 Q1808.65 1549.52 1806.38 1549.15 Q1804.14 1548.78 1801.73 1548.04 L1801.73 1543.34 Q1803.81 1544.47 1806.03 1545.03 Q1808.26 1545.58 1810.73 1545.58 Q1814.74 1545.58 1817.08 1543.48 Q1819.41 1541.37 1819.41 1537.76 Q1819.41 1534.15 1817.08 1532.04 Q1814.74 1529.94 1810.73 1529.94 Q1808.86 1529.94 1806.98 1530.35 Q1805.13 1530.77 1803.19 1531.65 L1803.19 1514.29 Z" fill="#000000" fill-rule="nonzero" fill-opacity="1" /><path clip-path="url(#clip990)" d="M2299.93 1544.91 L2307.57 1544.91 L2307.57 1518.55 L2299.26 1520.21 L2299.26 1515.95 L2307.53 1514.29 L2312.2 1514.29 L2312.2 1544.91 L2319.84 1544.91 L2319.84 1548.85 L2299.93 1548.85 L2299.93 1544.91 Z" fill="#000000" fill-rule="nonzero" fill-opacity="1" /><path clip-path="url(#clip990)" d="M2339.28 1517.37 Q2335.67 1517.37 2333.84 1520.93 Q2332.04 1524.47 2332.04 1531.6 Q2332.04 1538.71 2333.84 1542.27 Q2335.67 1545.82 2339.28 1545.82 Q2342.92 1545.82 2344.72 1542.27 Q2346.55 1538.71 2346.55 1531.6 Q2346.55 1524.47 2344.72 1520.93 Q2342.92 1517.37 2339.28 1517.37 M2339.28 1513.66 Q2345.09 1513.66 2348.15 1518.27 Q2351.23 1522.85 2351.23 1531.6 Q2351.23 1540.33 2348.15 1544.94 Q2345.09 1549.52 2339.28 1549.52 Q2333.47 1549.52 2330.4 1544.94 Q2327.34 1540.33 2327.34 1531.6 Q2327.34 1522.85 2330.4 1518.27 Q2333.47 1513.66 2339.28 1513.66 Z" fill="#000000" fill-rule="nonzero" fill-opacity="1" /><polyline clip-path="url(#clip992)" style="stroke:#000000; stroke-linecap:round; stroke-linejoin:round; stroke-width:2; stroke-opacity:0.1; fill:none" points="178.867,1294.45 2352.76,1294.45 "/>
<polyline clip-path="url(#clip992)" style="stroke:#000000; stroke-linecap:round; stroke-linejoin:round; stroke-width:2; stroke-opacity:0.1; fill:none" points="178.867,1010.83 2352.76,1010.83 "/>
<polyline clip-path="url(#clip992)" style="stroke:#000000; stroke-linecap:round; stroke-linejoin:round; stroke-width:2; stroke-opacity:0.1; fill:none" points="178.867,727.213 2352.76,727.213 "/>
<polyline clip-path="url(#clip992)" style="stroke:#000000; stroke-linecap:round; stroke-linejoin:round; stroke-width:2; stroke-opacity:0.1; fill:none" points="178.867,443.593 2352.76,443.593 "/>
<polyline clip-path="url(#clip992)" style="stroke:#000000; stroke-linecap:round; stroke-linejoin:round; stroke-width:2; stroke-opacity:0.1; fill:none" points="178.867,159.974 2352.76,159.974 "/>
<polyline clip-path="url(#clip990)" style="stroke:#000000; stroke-linecap:round; stroke-linejoin:round; stroke-width:4; stroke-opacity:1; fill:none" points="178.867,1486.45 178.867,47.2441 "/>
<polyline clip-path="url(#clip990)" style="stroke:#000000; stroke-linecap:round; stroke-linejoin:round; stroke-width:4; stroke-opacity:1; fill:none" points="178.867,1294.45 197.764,1294.45 "/>
<polyline clip-path="url(#clip990)" style="stroke:#000000; stroke-linecap:round; stroke-linejoin:round; stroke-width:4; stroke-opacity:1; fill:none" points="178.867,1010.83 197.764,1010.83 "/>
<polyline clip-path="url(#clip990)" style="stroke:#000000; stroke-linecap:round; stroke-linejoin:round; stroke-width:4; stroke-opacity:1; fill:none" points="178.867,727.213 197.764,727.213 "/>
<polyline clip-path="url(#clip990)" style="stroke:#000000; stroke-linecap:round; stroke-linejoin:round; stroke-width:4; stroke-opacity:1; fill:none" points="178.867,443.593 197.764,443.593 "/>
<polyline clip-path="url(#clip990)" style="stroke:#000000; stroke-linecap:round; stroke-linejoin:round; stroke-width:4; stroke-opacity:1; fill:none" points="178.867,159.974 197.764,159.974 "/>
<path clip-path="url(#clip990)" d="M50.9921 1294.9 L80.6679 1294.9 L80.6679 1298.84 L50.9921 1298.84 L50.9921 1294.9 Z" fill="#000000" fill-rule="nonzero" fill-opacity="1" /><path clip-path="url(#clip990)" d="M90.8067 1277.17 L109.163 1277.17 L109.163 1281.11 L95.0891 1281.11 L95.0891 1289.58 Q96.1076 1289.23 97.1261 1289.07 Q98.1447 1288.88 99.1632 1288.88 Q104.95 1288.88 108.33 1292.06 Q111.709 1295.23 111.709 1300.64 Q111.709 1306.22 108.237 1309.32 Q104.765 1312.4 98.4456 1312.4 Q96.2697 1312.4 94.0012 1312.03 Q91.7558 1311.66 89.3484 1310.92 L89.3484 1306.22 Q91.4317 1307.36 93.6539 1307.91 Q95.8761 1308.47 98.353 1308.47 Q102.358 1308.47 104.696 1306.36 Q107.033 1304.26 107.033 1300.64 Q107.033 1297.03 104.696 1294.93 Q102.358 1292.82 98.353 1292.82 Q96.478 1292.82 94.603 1293.24 Q92.7512 1293.65 90.8067 1294.53 L90.8067 1277.17 Z" fill="#000000" fill-rule="nonzero" fill-opacity="1" /><path clip-path="url(#clip990)" d="M130.922 1280.25 Q127.311 1280.25 125.482 1283.82 Q123.677 1287.36 123.677 1294.49 Q123.677 1301.59 125.482 1305.16 Q127.311 1308.7 130.922 1308.7 Q134.556 1308.7 136.362 1305.16 Q138.191 1301.59 138.191 1294.49 Q138.191 1287.36 136.362 1283.82 Q134.556 1280.25 130.922 1280.25 M130.922 1276.55 Q136.732 1276.55 139.788 1281.15 Q142.867 1285.74 142.867 1294.49 Q142.867 1303.21 139.788 1307.82 Q136.732 1312.4 130.922 1312.4 Q125.112 1312.4 122.033 1307.82 Q118.978 1303.21 118.978 1294.49 Q118.978 1285.74 122.033 1281.15 Q125.112 1276.55 130.922 1276.55 Z" fill="#000000" fill-rule="nonzero" fill-opacity="1" /><path clip-path="url(#clip990)" d="M51.9875 1011.28 L81.6633 1011.28 L81.6633 1015.22 L51.9875 1015.22 L51.9875 1011.28 Z" fill="#000000" fill-rule="nonzero" fill-opacity="1" /><path clip-path="url(#clip990)" d="M95.7836 1024.18 L112.103 1024.18 L112.103 1028.11 L90.1586 1028.11 L90.1586 1024.18 Q92.8206 1021.42 97.4039 1016.79 Q102.01 1012.14 103.191 1010.8 Q105.436 1008.27 106.316 1006.54 Q107.219 1004.78 107.219 1003.09 Q107.219 1000.33 105.274 998.599 Q103.353 996.862 100.251 996.862 Q98.0521 996.862 95.5984 997.626 Q93.1678 998.39 90.3901 999.941 L90.3901 995.219 Q93.2141 994.085 95.6678 993.506 Q98.1215 992.927 100.159 992.927 Q105.529 992.927 108.723 995.613 Q111.918 998.298 111.918 1002.79 Q111.918 1004.92 111.108 1006.84 Q110.321 1008.74 108.214 1011.33 Q107.635 1012 104.534 1015.22 Q101.432 1018.41 95.7836 1024.18 Z" fill="#000000" fill-rule="nonzero" fill-opacity="1" /><path clip-path="url(#clip990)" d="M121.964 993.552 L140.32 993.552 L140.32 997.487 L126.246 997.487 L126.246 1005.96 Q127.265 1005.61 128.283 1005.45 Q129.302 1005.27 130.32 1005.27 Q136.107 1005.27 139.487 1008.44 Q142.867 1011.61 142.867 1017.02 Q142.867 1022.6 139.394 1025.7 Q135.922 1028.78 129.603 1028.78 Q127.427 1028.78 125.158 1028.41 Q122.913 1028.04 120.506 1027.3 L120.506 1022.6 Q122.589 1023.74 124.811 1024.29 Q127.033 1024.85 129.51 1024.85 Q133.515 1024.85 135.853 1022.74 Q138.191 1020.64 138.191 1017.02 Q138.191 1013.41 135.853 1011.31 Q133.515 1009.2 129.51 1009.2 Q127.635 1009.2 125.76 1009.62 Q123.908 1010.03 121.964 1010.91 L121.964 993.552 Z" fill="#000000" fill-rule="nonzero" fill-opacity="1" /><path clip-path="url(#clip990)" d="M130.922 713.012 Q127.311 713.012 125.482 716.576 Q123.677 720.118 123.677 727.248 Q123.677 734.354 125.482 737.919 Q127.311 741.46 130.922 741.46 Q134.556 741.46 136.362 737.919 Q138.191 734.354 138.191 727.248 Q138.191 720.118 136.362 716.576 Q134.556 713.012 130.922 713.012 M130.922 709.308 Q136.732 709.308 139.788 713.914 Q142.867 718.498 142.867 727.248 Q142.867 735.974 139.788 740.581 Q136.732 745.164 130.922 745.164 Q125.112 745.164 122.033 740.581 Q118.978 735.974 118.978 727.248 Q118.978 718.498 122.033 713.914 Q125.112 709.308 130.922 709.308 Z" fill="#000000" fill-rule="nonzero" fill-opacity="1" /><path clip-path="url(#clip990)" d="M95.7836 456.938 L112.103 456.938 L112.103 460.873 L90.1586 460.873 L90.1586 456.938 Q92.8206 454.184 97.4039 449.554 Q102.01 444.901 103.191 443.559 Q105.436 441.035 106.316 439.299 Q107.219 437.54 107.219 435.85 Q107.219 433.096 105.274 431.36 Q103.353 429.623 100.251 429.623 Q98.0521 429.623 95.5984 430.387 Q93.1678 431.151 90.3901 432.702 L90.3901 427.98 Q93.2141 426.846 95.6678 426.267 Q98.1215 425.688 100.159 425.688 Q105.529 425.688 108.723 428.373 Q111.918 431.059 111.918 435.549 Q111.918 437.679 111.108 439.6 Q110.321 441.498 108.214 444.091 Q107.635 444.762 104.534 447.98 Q101.432 451.174 95.7836 456.938 Z" fill="#000000" fill-rule="nonzero" fill-opacity="1" /><path clip-path="url(#clip990)" d="M121.964 426.313 L140.32 426.313 L140.32 430.248 L126.246 430.248 L126.246 438.721 Q127.265 438.373 128.283 438.211 Q129.302 438.026 130.32 438.026 Q136.107 438.026 139.487 441.197 Q142.867 444.369 142.867 449.785 Q142.867 455.364 139.394 458.466 Q135.922 461.545 129.603 461.545 Q127.427 461.545 125.158 461.174 Q122.913 460.804 120.506 460.063 L120.506 455.364 Q122.589 456.498 124.811 457.054 Q127.033 457.609 129.51 457.609 Q133.515 457.609 135.853 455.503 Q138.191 453.396 138.191 449.785 Q138.191 446.174 135.853 444.068 Q133.515 441.961 129.51 441.961 Q127.635 441.961 125.76 442.378 Q123.908 442.795 121.964 443.674 L121.964 426.313 Z" fill="#000000" fill-rule="nonzero" fill-opacity="1" /><path clip-path="url(#clip990)" d="M90.8067 142.694 L109.163 142.694 L109.163 146.629 L95.0891 146.629 L95.0891 155.101 Q96.1076 154.754 97.1261 154.592 Q98.1447 154.407 99.1632 154.407 Q104.95 154.407 108.33 157.578 Q111.709 160.749 111.709 166.166 Q111.709 171.745 108.237 174.846 Q104.765 177.925 98.4456 177.925 Q96.2697 177.925 94.0012 177.555 Q91.7558 177.184 89.3484 176.444 L89.3484 171.745 Q91.4317 172.879 93.6539 173.434 Q95.8761 173.99 98.353 173.99 Q102.358 173.99 104.696 171.883 Q107.033 169.777 107.033 166.166 Q107.033 162.555 104.696 160.448 Q102.358 158.342 98.353 158.342 Q96.478 158.342 94.603 158.759 Q92.7512 159.175 90.8067 160.055 L90.8067 142.694 Z" fill="#000000" fill-rule="nonzero" fill-opacity="1" /><path clip-path="url(#clip990)" d="M130.922 145.772 Q127.311 145.772 125.482 149.337 Q123.677 152.879 123.677 160.009 Q123.677 167.115 125.482 170.68 Q127.311 174.221 130.922 174.221 Q134.556 174.221 136.362 170.68 Q138.191 167.115 138.191 160.009 Q138.191 152.879 136.362 149.337 Q134.556 145.772 130.922 145.772 M130.922 142.069 Q136.732 142.069 139.788 146.675 Q142.867 151.259 142.867 160.009 Q142.867 168.735 139.788 173.342 Q136.732 177.925 130.922 177.925 Q125.112 177.925 122.033 173.342 Q118.978 168.735 118.978 160.009 Q118.978 151.259 122.033 146.675 Q125.112 142.069 130.922 142.069 Z" fill="#000000" fill-rule="nonzero" fill-opacity="1" /><circle clip-path="url(#clip992)" cx="361.28" cy="1007.63" r="14.4" fill="#009af9" fill-rule="evenodd" fill-opacity="1" stroke="#000000" stroke-opacity="1" stroke-width="3.2"/>
<circle clip-path="url(#clip992)" cx="747.261" cy="931.054" r="14.4" fill="#009af9" fill-rule="evenodd" fill-opacity="1" stroke="#000000" stroke-opacity="1" stroke-width="3.2"/>
<circle clip-path="url(#clip992)" cx="894.234" cy="939.383" r="14.4" fill="#009af9" fill-rule="evenodd" fill-opacity="1" stroke="#000000" stroke-opacity="1" stroke-width="3.2"/>
<circle clip-path="url(#clip992)" cx="1705.32" cy="567.379" r="14.4" fill="#009af9" fill-rule="evenodd" fill-opacity="1" stroke="#000000" stroke-opacity="1" stroke-width="3.2"/>
<circle clip-path="url(#clip992)" cx="593.497" cy="970.612" r="14.4" fill="#009af9" fill-rule="evenodd" fill-opacity="1" stroke="#000000" stroke-opacity="1" stroke-width="3.2"/>
<circle clip-path="url(#clip992)" cx="2126.23" cy="465.6" r="14.4" fill="#009af9" fill-rule="evenodd" fill-opacity="1" stroke="#000000" stroke-opacity="1" stroke-width="3.2"/>
<circle clip-path="url(#clip992)" cx="1828.22" cy="381.488" r="14.4" fill="#009af9" fill-rule="evenodd" fill-opacity="1" stroke="#000000" stroke-opacity="1" stroke-width="3.2"/>
<circle clip-path="url(#clip992)" cx="563.737" cy="956.482" r="14.4" fill="#009af9" fill-rule="evenodd" fill-opacity="1" stroke="#000000" stroke-opacity="1" stroke-width="3.2"/>
<circle clip-path="url(#clip992)" cx="987.695" cy="937.282" r="14.4" fill="#009af9" fill-rule="evenodd" fill-opacity="1" stroke="#000000" stroke-opacity="1" stroke-width="3.2"/>
<circle clip-path="url(#clip992)" cx="1854.56" cy="509.915" r="14.4" fill="#009af9" fill-rule="evenodd" fill-opacity="1" stroke="#000000" stroke-opacity="1" stroke-width="3.2"/>
<circle clip-path="url(#clip992)" cx="978.996" cy="817.419" r="14.4" fill="#009af9" fill-rule="evenodd" fill-opacity="1" stroke="#000000" stroke-opacity="1" stroke-width="3.2"/>
<circle clip-path="url(#clip992)" cx="416.719" cy="1296.36" r="14.4" fill="#009af9" fill-rule="evenodd" fill-opacity="1" stroke="#000000" stroke-opacity="1" stroke-width="3.2"/>
<circle clip-path="url(#clip992)" cx="1672.53" cy="624.655" r="14.4" fill="#009af9" fill-rule="evenodd" fill-opacity="1" stroke="#000000" stroke-opacity="1" stroke-width="3.2"/>
<circle clip-path="url(#clip992)" cx="1729.51" cy="560.705" r="14.4" fill="#009af9" fill-rule="evenodd" fill-opacity="1" stroke="#000000" stroke-opacity="1" stroke-width="3.2"/>
<circle clip-path="url(#clip992)" cx="762.296" cy="1103.69" r="14.4" fill="#009af9" fill-rule="evenodd" fill-opacity="1" stroke="#000000" stroke-opacity="1" stroke-width="3.2"/>
<circle clip-path="url(#clip992)" cx="803.31" cy="878.822" r="14.4" fill="#009af9" fill-rule="evenodd" fill-opacity="1" stroke="#000000" stroke-opacity="1" stroke-width="3.2"/>
<circle clip-path="url(#clip992)" cx="579.377" cy="914.753" r="14.4" fill="#009af9" fill-rule="evenodd" fill-opacity="1" stroke="#000000" stroke-opacity="1" stroke-width="3.2"/>
<circle clip-path="url(#clip992)" cx="1706.81" cy="414.537" r="14.4" fill="#009af9" fill-rule="evenodd" fill-opacity="1" stroke="#000000" stroke-opacity="1" stroke-width="3.2"/>
<circle clip-path="url(#clip992)" cx="579.109" cy="1004.01" r="14.4" fill="#009af9" fill-rule="evenodd" fill-opacity="1" stroke="#000000" stroke-opacity="1" stroke-width="3.2"/>
<circle clip-path="url(#clip992)" cx="1880.62" cy="374.748" r="14.4" fill="#009af9" fill-rule="evenodd" fill-opacity="1" stroke="#000000" stroke-opacity="1" stroke-width="3.2"/>
<circle clip-path="url(#clip992)" cx="493.453" cy="949.817" r="14.4" fill="#009af9" fill-rule="evenodd" fill-opacity="1" stroke="#000000" stroke-opacity="1" stroke-width="3.2"/>
<circle clip-path="url(#clip992)" cx="2163.46" cy="402.27" r="14.4" fill="#009af9" fill-rule="evenodd" fill-opacity="1" stroke="#000000" stroke-opacity="1" stroke-width="3.2"/>
<circle clip-path="url(#clip992)" cx="833.715" cy="873.543" r="14.4" fill="#009af9" fill-rule="evenodd" fill-opacity="1" stroke="#000000" stroke-opacity="1" stroke-width="3.2"/>
<circle clip-path="url(#clip992)" cx="1750.6" cy="437.198" r="14.4" fill="#009af9" fill-rule="evenodd" fill-opacity="1" stroke="#000000" stroke-opacity="1" stroke-width="3.2"/>
<circle clip-path="url(#clip992)" cx="1956.5" cy="285.313" r="14.4" fill="#009af9" fill-rule="evenodd" fill-opacity="1" stroke="#000000" stroke-opacity="1" stroke-width="3.2"/>
<circle clip-path="url(#clip992)" cx="895.859" cy="882.782" r="14.4" fill="#009af9" fill-rule="evenodd" fill-opacity="1" stroke="#000000" stroke-opacity="1" stroke-width="3.2"/>
<circle clip-path="url(#clip992)" cx="2036.1" cy="522.154" r="14.4" fill="#009af9" fill-rule="evenodd" fill-opacity="1" stroke="#000000" stroke-opacity="1" stroke-width="3.2"/>
<circle clip-path="url(#clip992)" cx="1984.27" cy="479.985" r="14.4" fill="#009af9" fill-rule="evenodd" fill-opacity="1" stroke="#000000" stroke-opacity="1" stroke-width="3.2"/>
<circle clip-path="url(#clip992)" cx="2291.23" cy="87.9763" r="14.4" fill="#009af9" fill-rule="evenodd" fill-opacity="1" stroke="#000000" stroke-opacity="1" stroke-width="3.2"/>
<circle clip-path="url(#clip992)" cx="857.205" cy="843.821" r="14.4" fill="#009af9" fill-rule="evenodd" fill-opacity="1" stroke="#000000" stroke-opacity="1" stroke-width="3.2"/>
<circle clip-path="url(#clip992)" cx="1880.84" cy="587.127" r="14.4" fill="#009af9" fill-rule="evenodd" fill-opacity="1" stroke="#000000" stroke-opacity="1" stroke-width="3.2"/>
<circle clip-path="url(#clip992)" cx="1745.29" cy="553.583" r="14.4" fill="#009af9" fill-rule="evenodd" fill-opacity="1" stroke="#000000" stroke-opacity="1" stroke-width="3.2"/>
<circle clip-path="url(#clip992)" cx="922.653" cy="913.253" r="14.4" fill="#009af9" fill-rule="evenodd" fill-opacity="1" stroke="#000000" stroke-opacity="1" stroke-width="3.2"/>
<circle clip-path="url(#clip992)" cx="1708.29" cy="599.113" r="14.4" fill="#009af9" fill-rule="evenodd" fill-opacity="1" stroke="#000000" stroke-opacity="1" stroke-width="3.2"/>
<circle clip-path="url(#clip992)" cx="466.127" cy="1319.88" r="14.4" fill="#009af9" fill-rule="evenodd" fill-opacity="1" stroke="#000000" stroke-opacity="1" stroke-width="3.2"/>
<circle clip-path="url(#clip992)" cx="908.158" cy="849.081" r="14.4" fill="#009af9" fill-rule="evenodd" fill-opacity="1" stroke="#000000" stroke-opacity="1" stroke-width="3.2"/>
<circle clip-path="url(#clip992)" cx="1646.78" cy="507.569" r="14.4" fill="#009af9" fill-rule="evenodd" fill-opacity="1" stroke="#000000" stroke-opacity="1" stroke-width="3.2"/>
<circle clip-path="url(#clip992)" cx="927.432" cy="930.539" r="14.4" fill="#009af9" fill-rule="evenodd" fill-opacity="1" stroke="#000000" stroke-opacity="1" stroke-width="3.2"/>
<circle clip-path="url(#clip992)" cx="1736.12" cy="616.525" r="14.4" fill="#009af9" fill-rule="evenodd" fill-opacity="1" stroke="#000000" stroke-opacity="1" stroke-width="3.2"/>
<circle clip-path="url(#clip992)" cx="778.964" cy="843.647" r="14.4" fill="#009af9" fill-rule="evenodd" fill-opacity="1" stroke="#000000" stroke-opacity="1" stroke-width="3.2"/>
<circle clip-path="url(#clip992)" cx="987.157" cy="809.973" r="14.4" fill="#009af9" fill-rule="evenodd" fill-opacity="1" stroke="#000000" stroke-opacity="1" stroke-width="3.2"/>
<circle clip-path="url(#clip992)" cx="588.733" cy="1200.36" r="14.4" fill="#009af9" fill-rule="evenodd" fill-opacity="1" stroke="#000000" stroke-opacity="1" stroke-width="3.2"/>
<circle clip-path="url(#clip992)" cx="2119.34" cy="476.277" r="14.4" fill="#009af9" fill-rule="evenodd" fill-opacity="1" stroke="#000000" stroke-opacity="1" stroke-width="3.2"/>
<circle clip-path="url(#clip992)" cx="628.916" cy="889.259" r="14.4" fill="#009af9" fill-rule="evenodd" fill-opacity="1" stroke="#000000" stroke-opacity="1" stroke-width="3.2"/>
<circle clip-path="url(#clip992)" cx="1838.58" cy="638.59" r="14.4" fill="#009af9" fill-rule="evenodd" fill-opacity="1" stroke="#000000" stroke-opacity="1" stroke-width="3.2"/>
<circle clip-path="url(#clip992)" cx="1628.33" cy="610.377" r="14.4" fill="#009af9" fill-rule="evenodd" fill-opacity="1" stroke="#000000" stroke-opacity="1" stroke-width="3.2"/>
<circle clip-path="url(#clip992)" cx="2014.25" cy="445.164" r="14.4" fill="#009af9" fill-rule="evenodd" fill-opacity="1" stroke="#000000" stroke-opacity="1" stroke-width="3.2"/>
<circle clip-path="url(#clip992)" cx="1803.79" cy="566.224" r="14.4" fill="#009af9" fill-rule="evenodd" fill-opacity="1" stroke="#000000" stroke-opacity="1" stroke-width="3.2"/>
<circle clip-path="url(#clip992)" cx="846.333" cy="929.991" r="14.4" fill="#009af9" fill-rule="evenodd" fill-opacity="1" stroke="#000000" stroke-opacity="1" stroke-width="3.2"/>
<circle clip-path="url(#clip992)" cx="921.716" cy="945.467" r="14.4" fill="#009af9" fill-rule="evenodd" fill-opacity="1" stroke="#000000" stroke-opacity="1" stroke-width="3.2"/>
<circle clip-path="url(#clip992)" cx="459.263" cy="992.985" r="14.4" fill="#009af9" fill-rule="evenodd" fill-opacity="1" stroke="#000000" stroke-opacity="1" stroke-width="3.2"/>
<circle clip-path="url(#clip992)" cx="1896.88" cy="308.749" r="14.4" fill="#009af9" fill-rule="evenodd" fill-opacity="1" stroke="#000000" stroke-opacity="1" stroke-width="3.2"/>
<circle clip-path="url(#clip992)" cx="684.05" cy="1152.65" r="14.4" fill="#009af9" fill-rule="evenodd" fill-opacity="1" stroke="#000000" stroke-opacity="1" stroke-width="3.2"/>
<circle clip-path="url(#clip992)" cx="1659.68" cy="605.22" r="14.4" fill="#009af9" fill-rule="evenodd" fill-opacity="1" stroke="#000000" stroke-opacity="1" stroke-width="3.2"/>
<circle clip-path="url(#clip992)" cx="797.511" cy="964.485" r="14.4" fill="#009af9" fill-rule="evenodd" fill-opacity="1" stroke="#000000" stroke-opacity="1" stroke-width="3.2"/>
<circle clip-path="url(#clip992)" cx="860.947" cy="853.645" r="14.4" fill="#009af9" fill-rule="evenodd" fill-opacity="1" stroke="#000000" stroke-opacity="1" stroke-width="3.2"/>
<circle clip-path="url(#clip992)" cx="804.87" cy="1072.86" r="14.4" fill="#009af9" fill-rule="evenodd" fill-opacity="1" stroke="#000000" stroke-opacity="1" stroke-width="3.2"/>
<circle clip-path="url(#clip992)" cx="1684.43" cy="584.83" r="14.4" fill="#009af9" fill-rule="evenodd" fill-opacity="1" stroke="#000000" stroke-opacity="1" stroke-width="3.2"/>
<circle clip-path="url(#clip992)" cx="887.322" cy="949.093" r="14.4" fill="#009af9" fill-rule="evenodd" fill-opacity="1" stroke="#000000" stroke-opacity="1" stroke-width="3.2"/>
<circle clip-path="url(#clip992)" cx="1897.75" cy="336.343" r="14.4" fill="#009af9" fill-rule="evenodd" fill-opacity="1" stroke="#000000" stroke-opacity="1" stroke-width="3.2"/>
<circle clip-path="url(#clip992)" cx="1618.21" cy="628.183" r="14.4" fill="#009af9" fill-rule="evenodd" fill-opacity="1" stroke="#000000" stroke-opacity="1" stroke-width="3.2"/>
<circle clip-path="url(#clip992)" cx="1647.87" cy="509.961" r="14.4" fill="#009af9" fill-rule="evenodd" fill-opacity="1" stroke="#000000" stroke-opacity="1" stroke-width="3.2"/>
<circle clip-path="url(#clip992)" cx="1635" cy="579.116" r="14.4" fill="#009af9" fill-rule="evenodd" fill-opacity="1" stroke="#000000" stroke-opacity="1" stroke-width="3.2"/>
<circle clip-path="url(#clip992)" cx="853.183" cy="992.418" r="14.4" fill="#009af9" fill-rule="evenodd" fill-opacity="1" stroke="#000000" stroke-opacity="1" stroke-width="3.2"/>
<circle clip-path="url(#clip992)" cx="783.555" cy="915.173" r="14.4" fill="#009af9" fill-rule="evenodd" fill-opacity="1" stroke="#000000" stroke-opacity="1" stroke-width="3.2"/>
<circle clip-path="url(#clip992)" cx="403.369" cy="1055.31" r="14.4" fill="#009af9" fill-rule="evenodd" fill-opacity="1" stroke="#000000" stroke-opacity="1" stroke-width="3.2"/>
<circle clip-path="url(#clip992)" cx="1977.81" cy="508.528" r="14.4" fill="#009af9" fill-rule="evenodd" fill-opacity="1" stroke="#000000" stroke-opacity="1" stroke-width="3.2"/>
<circle clip-path="url(#clip992)" cx="845.668" cy="1081.69" r="14.4" fill="#009af9" fill-rule="evenodd" fill-opacity="1" stroke="#000000" stroke-opacity="1" stroke-width="3.2"/>
<circle clip-path="url(#clip992)" cx="1713.55" cy="620.101" r="14.4" fill="#009af9" fill-rule="evenodd" fill-opacity="1" stroke="#000000" stroke-opacity="1" stroke-width="3.2"/>
<circle clip-path="url(#clip992)" cx="2073.58" cy="449.7" r="14.4" fill="#009af9" fill-rule="evenodd" fill-opacity="1" stroke="#000000" stroke-opacity="1" stroke-width="3.2"/>
<circle clip-path="url(#clip992)" cx="1790.61" cy="540.358" r="14.4" fill="#009af9" fill-rule="evenodd" fill-opacity="1" stroke="#000000" stroke-opacity="1" stroke-width="3.2"/>
<circle clip-path="url(#clip992)" cx="1711.61" cy="544.142" r="14.4" fill="#009af9" fill-rule="evenodd" fill-opacity="1" stroke="#000000" stroke-opacity="1" stroke-width="3.2"/>
<circle clip-path="url(#clip992)" cx="1640.66" cy="636.245" r="14.4" fill="#009af9" fill-rule="evenodd" fill-opacity="1" stroke="#000000" stroke-opacity="1" stroke-width="3.2"/>
<circle clip-path="url(#clip992)" cx="862.213" cy="871.412" r="14.4" fill="#009af9" fill-rule="evenodd" fill-opacity="1" stroke="#000000" stroke-opacity="1" stroke-width="3.2"/>
<circle clip-path="url(#clip992)" cx="971.202" cy="874.678" r="14.4" fill="#009af9" fill-rule="evenodd" fill-opacity="1" stroke="#000000" stroke-opacity="1" stroke-width="3.2"/>
<circle clip-path="url(#clip992)" cx="1763.62" cy="570.86" r="14.4" fill="#009af9" fill-rule="evenodd" fill-opacity="1" stroke="#000000" stroke-opacity="1" stroke-width="3.2"/>
<circle clip-path="url(#clip992)" cx="1881.32" cy="579.811" r="14.4" fill="#009af9" fill-rule="evenodd" fill-opacity="1" stroke="#000000" stroke-opacity="1" stroke-width="3.2"/>
<circle clip-path="url(#clip992)" cx="2030.04" cy="186.845" r="14.4" fill="#009af9" fill-rule="evenodd" fill-opacity="1" stroke="#000000" stroke-opacity="1" stroke-width="3.2"/>
<circle clip-path="url(#clip992)" cx="916.17" cy="917.75" r="14.4" fill="#009af9" fill-rule="evenodd" fill-opacity="1" stroke="#000000" stroke-opacity="1" stroke-width="3.2"/>
<circle clip-path="url(#clip992)" cx="775.808" cy="912.776" r="14.4" fill="#009af9" fill-rule="evenodd" fill-opacity="1" stroke="#000000" stroke-opacity="1" stroke-width="3.2"/>
<circle clip-path="url(#clip992)" cx="384.705" cy="1375.44" r="14.4" fill="#009af9" fill-rule="evenodd" fill-opacity="1" stroke="#000000" stroke-opacity="1" stroke-width="3.2"/>
<circle clip-path="url(#clip992)" cx="1887.2" cy="447.578" r="14.4" fill="#009af9" fill-rule="evenodd" fill-opacity="1" stroke="#000000" stroke-opacity="1" stroke-width="3.2"/>
<circle clip-path="url(#clip992)" cx="1755.71" cy="607.976" r="14.4" fill="#009af9" fill-rule="evenodd" fill-opacity="1" stroke="#000000" stroke-opacity="1" stroke-width="3.2"/>
<circle clip-path="url(#clip992)" cx="936.146" cy="851.441" r="14.4" fill="#009af9" fill-rule="evenodd" fill-opacity="1" stroke="#000000" stroke-opacity="1" stroke-width="3.2"/>
<circle clip-path="url(#clip992)" cx="1742.56" cy="445.337" r="14.4" fill="#009af9" fill-rule="evenodd" fill-opacity="1" stroke="#000000" stroke-opacity="1" stroke-width="3.2"/>
<circle clip-path="url(#clip992)" cx="1702.51" cy="616.089" r="14.4" fill="#009af9" fill-rule="evenodd" fill-opacity="1" stroke="#000000" stroke-opacity="1" stroke-width="3.2"/>
<circle clip-path="url(#clip992)" cx="1751.04" cy="612.836" r="14.4" fill="#009af9" fill-rule="evenodd" fill-opacity="1" stroke="#000000" stroke-opacity="1" stroke-width="3.2"/>
<circle clip-path="url(#clip992)" cx="1766.35" cy="441.576" r="14.4" fill="#009af9" fill-rule="evenodd" fill-opacity="1" stroke="#000000" stroke-opacity="1" stroke-width="3.2"/>
<circle clip-path="url(#clip992)" cx="1811.06" cy="441.463" r="14.4" fill="#009af9" fill-rule="evenodd" fill-opacity="1" stroke="#000000" stroke-opacity="1" stroke-width="3.2"/>
<circle clip-path="url(#clip992)" cx="487.528" cy="1225.45" r="14.4" fill="#009af9" fill-rule="evenodd" fill-opacity="1" stroke="#000000" stroke-opacity="1" stroke-width="3.2"/>
<circle clip-path="url(#clip992)" cx="1933.03" cy="501.972" r="14.4" fill="#009af9" fill-rule="evenodd" fill-opacity="1" stroke="#000000" stroke-opacity="1" stroke-width="3.2"/>
<circle clip-path="url(#clip992)" cx="383.858" cy="1296.69" r="14.4" fill="#009af9" fill-rule="evenodd" fill-opacity="1" stroke="#000000" stroke-opacity="1" stroke-width="3.2"/>
<circle clip-path="url(#clip992)" cx="964.492" cy="831.876" r="14.4" fill="#009af9" fill-rule="evenodd" fill-opacity="1" stroke="#000000" stroke-opacity="1" stroke-width="3.2"/>
<circle clip-path="url(#clip992)" cx="970.304" cy="870.133" r="14.4" fill="#009af9" fill-rule="evenodd" fill-opacity="1" stroke="#000000" stroke-opacity="1" stroke-width="3.2"/>
<circle clip-path="url(#clip992)" cx="631.037" cy="951.867" r="14.4" fill="#009af9" fill-rule="evenodd" fill-opacity="1" stroke="#000000" stroke-opacity="1" stroke-width="3.2"/>
<circle clip-path="url(#clip992)" cx="525.178" cy="1062.12" r="14.4" fill="#009af9" fill-rule="evenodd" fill-opacity="1" stroke="#000000" stroke-opacity="1" stroke-width="3.2"/>
<circle clip-path="url(#clip992)" cx="827.933" cy="865.434" r="14.4" fill="#009af9" fill-rule="evenodd" fill-opacity="1" stroke="#000000" stroke-opacity="1" stroke-width="3.2"/>
<circle clip-path="url(#clip992)" cx="1759.63" cy="581.005" r="14.4" fill="#009af9" fill-rule="evenodd" fill-opacity="1" stroke="#000000" stroke-opacity="1" stroke-width="3.2"/>
<circle clip-path="url(#clip992)" cx="937.661" cy="959.979" r="14.4" fill="#009af9" fill-rule="evenodd" fill-opacity="1" stroke="#000000" stroke-opacity="1" stroke-width="3.2"/>
<circle clip-path="url(#clip992)" cx="1614.46" cy="587.693" r="14.4" fill="#009af9" fill-rule="evenodd" fill-opacity="1" stroke="#000000" stroke-opacity="1" stroke-width="3.2"/>
<circle clip-path="url(#clip992)" cx="1664.34" cy="618.636" r="14.4" fill="#009af9" fill-rule="evenodd" fill-opacity="1" stroke="#000000" stroke-opacity="1" stroke-width="3.2"/>
<circle clip-path="url(#clip992)" cx="1673.26" cy="513.781" r="14.4" fill="#009af9" fill-rule="evenodd" fill-opacity="1" stroke="#000000" stroke-opacity="1" stroke-width="3.2"/>
<circle clip-path="url(#clip992)" cx="458.467" cy="980.727" r="14.4" fill="#009af9" fill-rule="evenodd" fill-opacity="1" stroke="#000000" stroke-opacity="1" stroke-width="3.2"/>
<circle clip-path="url(#clip992)" cx="942.717" cy="888.513" r="14.4" fill="#009af9" fill-rule="evenodd" fill-opacity="1" stroke="#000000" stroke-opacity="1" stroke-width="3.2"/>
<circle clip-path="url(#clip992)" cx="973.133" cy="858.231" r="14.4" fill="#009af9" fill-rule="evenodd" fill-opacity="1" stroke="#000000" stroke-opacity="1" stroke-width="3.2"/>
<circle clip-path="url(#clip992)" cx="805.939" cy="1027.08" r="14.4" fill="#009af9" fill-rule="evenodd" fill-opacity="1" stroke="#000000" stroke-opacity="1" stroke-width="3.2"/>
<circle clip-path="url(#clip992)" cx="1823.53" cy="598.297" r="14.4" fill="#009af9" fill-rule="evenodd" fill-opacity="1" stroke="#000000" stroke-opacity="1" stroke-width="3.2"/>
<circle clip-path="url(#clip992)" cx="822.107" cy="1011.34" r="14.4" fill="#009af9" fill-rule="evenodd" fill-opacity="1" stroke="#000000" stroke-opacity="1" stroke-width="3.2"/>
<circle clip-path="url(#clip992)" cx="1610.05" cy="519.748" r="14.4" fill="#009af9" fill-rule="evenodd" fill-opacity="1" stroke="#000000" stroke-opacity="1" stroke-width="3.2"/>
<circle clip-path="url(#clip992)" cx="874.917" cy="1035.39" r="14.4" fill="#009af9" fill-rule="evenodd" fill-opacity="1" stroke="#000000" stroke-opacity="1" stroke-width="3.2"/>
<circle clip-path="url(#clip992)" cx="2086.39" cy="228.619" r="14.4" fill="#009af9" fill-rule="evenodd" fill-opacity="1" stroke="#000000" stroke-opacity="1" stroke-width="3.2"/>
<circle clip-path="url(#clip992)" cx="1787.1" cy="369.991" r="14.4" fill="#009af9" fill-rule="evenodd" fill-opacity="1" stroke="#000000" stroke-opacity="1" stroke-width="3.2"/>
<circle clip-path="url(#clip992)" cx="959.089" cy="825.477" r="14.4" fill="#009af9" fill-rule="evenodd" fill-opacity="1" stroke="#000000" stroke-opacity="1" stroke-width="3.2"/>
<circle clip-path="url(#clip992)" cx="1663.76" cy="570.385" r="14.4" fill="#009af9" fill-rule="evenodd" fill-opacity="1" stroke="#000000" stroke-opacity="1" stroke-width="3.2"/>
<circle clip-path="url(#clip992)" cx="293.269" cy="1046.13" r="14.4" fill="#009af9" fill-rule="evenodd" fill-opacity="1" stroke="#000000" stroke-opacity="1" stroke-width="3.2"/>
<circle clip-path="url(#clip992)" cx="531.689" cy="1005.38" r="14.4" fill="#009af9" fill-rule="evenodd" fill-opacity="1" stroke="#000000" stroke-opacity="1" stroke-width="3.2"/>
<circle clip-path="url(#clip992)" cx="543.997" cy="977.953" r="14.4" fill="#009af9" fill-rule="evenodd" fill-opacity="1" stroke="#000000" stroke-opacity="1" stroke-width="3.2"/>
<circle clip-path="url(#clip992)" cx="2013.99" cy="459.801" r="14.4" fill="#009af9" fill-rule="evenodd" fill-opacity="1" stroke="#000000" stroke-opacity="1" stroke-width="3.2"/>
<circle clip-path="url(#clip992)" cx="585.632" cy="954.606" r="14.4" fill="#009af9" fill-rule="evenodd" fill-opacity="1" stroke="#000000" stroke-opacity="1" stroke-width="3.2"/>
<circle clip-path="url(#clip992)" cx="500.11" cy="1013.81" r="14.4" fill="#009af9" fill-rule="evenodd" fill-opacity="1" stroke="#000000" stroke-opacity="1" stroke-width="3.2"/>
<circle clip-path="url(#clip992)" cx="921.558" cy="911.653" r="14.4" fill="#009af9" fill-rule="evenodd" fill-opacity="1" stroke="#000000" stroke-opacity="1" stroke-width="3.2"/>
<circle clip-path="url(#clip992)" cx="904.58" cy="977.352" r="14.4" fill="#009af9" fill-rule="evenodd" fill-opacity="1" stroke="#000000" stroke-opacity="1" stroke-width="3.2"/>
<circle clip-path="url(#clip992)" cx="772.39" cy="896.083" r="14.4" fill="#009af9" fill-rule="evenodd" fill-opacity="1" stroke="#000000" stroke-opacity="1" stroke-width="3.2"/>
<circle clip-path="url(#clip992)" cx="769.166" cy="886.765" r="14.4" fill="#009af9" fill-rule="evenodd" fill-opacity="1" stroke="#000000" stroke-opacity="1" stroke-width="3.2"/>
<circle clip-path="url(#clip992)" cx="1837.87" cy="344.991" r="14.4" fill="#009af9" fill-rule="evenodd" fill-opacity="1" stroke="#000000" stroke-opacity="1" stroke-width="3.2"/>
<circle clip-path="url(#clip992)" cx="462.326" cy="1270.78" r="14.4" fill="#009af9" fill-rule="evenodd" fill-opacity="1" stroke="#000000" stroke-opacity="1" stroke-width="3.2"/>
<circle clip-path="url(#clip992)" cx="1998.1" cy="501.21" r="14.4" fill="#009af9" fill-rule="evenodd" fill-opacity="1" stroke="#000000" stroke-opacity="1" stroke-width="3.2"/>
<circle clip-path="url(#clip992)" cx="1866.37" cy="569.188" r="14.4" fill="#009af9" fill-rule="evenodd" fill-opacity="1" stroke="#000000" stroke-opacity="1" stroke-width="3.2"/>
<circle clip-path="url(#clip992)" cx="1718.44" cy="581.699" r="14.4" fill="#009af9" fill-rule="evenodd" fill-opacity="1" stroke="#000000" stroke-opacity="1" stroke-width="3.2"/>
<circle clip-path="url(#clip992)" cx="827.861" cy="938.384" r="14.4" fill="#009af9" fill-rule="evenodd" fill-opacity="1" stroke="#000000" stroke-opacity="1" stroke-width="3.2"/>
<circle clip-path="url(#clip992)" cx="2183.8" cy="473.241" r="14.4" fill="#009af9" fill-rule="evenodd" fill-opacity="1" stroke="#000000" stroke-opacity="1" stroke-width="3.2"/>
<circle clip-path="url(#clip992)" cx="851.76" cy="881.8" r="14.4" fill="#009af9" fill-rule="evenodd" fill-opacity="1" stroke="#000000" stroke-opacity="1" stroke-width="3.2"/>
<circle clip-path="url(#clip992)" cx="1624.01" cy="528.196" r="14.4" fill="#009af9" fill-rule="evenodd" fill-opacity="1" stroke="#000000" stroke-opacity="1" stroke-width="3.2"/>
<circle clip-path="url(#clip992)" cx="1810.69" cy="545.819" r="14.4" fill="#009af9" fill-rule="evenodd" fill-opacity="1" stroke="#000000" stroke-opacity="1" stroke-width="3.2"/>
<circle clip-path="url(#clip992)" cx="1950.95" cy="477.227" r="14.4" fill="#009af9" fill-rule="evenodd" fill-opacity="1" stroke="#000000" stroke-opacity="1" stroke-width="3.2"/>
<circle clip-path="url(#clip992)" cx="809.152" cy="1098.11" r="14.4" fill="#009af9" fill-rule="evenodd" fill-opacity="1" stroke="#000000" stroke-opacity="1" stroke-width="3.2"/>
<circle clip-path="url(#clip992)" cx="1694.03" cy="618.967" r="14.4" fill="#009af9" fill-rule="evenodd" fill-opacity="1" stroke="#000000" stroke-opacity="1" stroke-width="3.2"/>
<circle clip-path="url(#clip992)" cx="1671.32" cy="569.214" r="14.4" fill="#009af9" fill-rule="evenodd" fill-opacity="1" stroke="#000000" stroke-opacity="1" stroke-width="3.2"/>
<circle clip-path="url(#clip992)" cx="330.028" cy="1039.01" r="14.4" fill="#009af9" fill-rule="evenodd" fill-opacity="1" stroke="#000000" stroke-opacity="1" stroke-width="3.2"/>
<circle clip-path="url(#clip992)" cx="750.22" cy="914.456" r="14.4" fill="#009af9" fill-rule="evenodd" fill-opacity="1" stroke="#000000" stroke-opacity="1" stroke-width="3.2"/>
<circle clip-path="url(#clip992)" cx="1989.07" cy="442.979" r="14.4" fill="#009af9" fill-rule="evenodd" fill-opacity="1" stroke="#000000" stroke-opacity="1" stroke-width="3.2"/>
<circle clip-path="url(#clip992)" cx="835.897" cy="842.532" r="14.4" fill="#009af9" fill-rule="evenodd" fill-opacity="1" stroke="#000000" stroke-opacity="1" stroke-width="3.2"/>
<circle clip-path="url(#clip992)" cx="679.465" cy="1069.23" r="14.4" fill="#009af9" fill-rule="evenodd" fill-opacity="1" stroke="#000000" stroke-opacity="1" stroke-width="3.2"/>
<circle clip-path="url(#clip992)" cx="2087.67" cy="488.566" r="14.4" fill="#009af9" fill-rule="evenodd" fill-opacity="1" stroke="#000000" stroke-opacity="1" stroke-width="3.2"/>
<circle clip-path="url(#clip992)" cx="1798.79" cy="577.65" r="14.4" fill="#009af9" fill-rule="evenodd" fill-opacity="1" stroke="#000000" stroke-opacity="1" stroke-width="3.2"/>
<circle clip-path="url(#clip992)" cx="1682.33" cy="544.255" r="14.4" fill="#009af9" fill-rule="evenodd" fill-opacity="1" stroke="#000000" stroke-opacity="1" stroke-width="3.2"/>
<circle clip-path="url(#clip992)" cx="1877.17" cy="285.162" r="14.4" fill="#009af9" fill-rule="evenodd" fill-opacity="1" stroke="#000000" stroke-opacity="1" stroke-width="3.2"/>
<circle clip-path="url(#clip992)" cx="682.293" cy="929.596" r="14.4" fill="#009af9" fill-rule="evenodd" fill-opacity="1" stroke="#000000" stroke-opacity="1" stroke-width="3.2"/>
<circle clip-path="url(#clip992)" cx="924.27" cy="856.451" r="14.4" fill="#009af9" fill-rule="evenodd" fill-opacity="1" stroke="#000000" stroke-opacity="1" stroke-width="3.2"/>
<circle clip-path="url(#clip992)" cx="835.163" cy="850.652" r="14.4" fill="#009af9" fill-rule="evenodd" fill-opacity="1" stroke="#000000" stroke-opacity="1" stroke-width="3.2"/>
<circle clip-path="url(#clip992)" cx="660.111" cy="1119.34" r="14.4" fill="#e26f46" fill-rule="evenodd" fill-opacity="1" stroke="#000000" stroke-opacity="1" stroke-width="3.2"/>
<circle clip-path="url(#clip992)" cx="895.614" cy="861.355" r="14.4" fill="#e26f46" fill-rule="evenodd" fill-opacity="1" stroke="#000000" stroke-opacity="1" stroke-width="3.2"/>
<circle clip-path="url(#clip992)" cx="2156.12" cy="156.254" r="14.4" fill="#e26f46" fill-rule="evenodd" fill-opacity="1" stroke="#000000" stroke-opacity="1" stroke-width="3.2"/>
<circle clip-path="url(#clip992)" cx="960.192" cy="800.259" r="14.4" fill="#e26f46" fill-rule="evenodd" fill-opacity="1" stroke="#000000" stroke-opacity="1" stroke-width="3.2"/>
<circle clip-path="url(#clip992)" cx="1933.79" cy="524.464" r="14.4" fill="#e26f46" fill-rule="evenodd" fill-opacity="1" stroke="#000000" stroke-opacity="1" stroke-width="3.2"/>
<circle clip-path="url(#clip992)" cx="701.627" cy="1099.45" r="14.4" fill="#e26f46" fill-rule="evenodd" fill-opacity="1" stroke="#000000" stroke-opacity="1" stroke-width="3.2"/>
<circle clip-path="url(#clip992)" cx="911.558" cy="972.38" r="14.4" fill="#e26f46" fill-rule="evenodd" fill-opacity="1" stroke="#000000" stroke-opacity="1" stroke-width="3.2"/>
<circle clip-path="url(#clip992)" cx="671.409" cy="942.344" r="14.4" fill="#e26f46" fill-rule="evenodd" fill-opacity="1" stroke="#000000" stroke-opacity="1" stroke-width="3.2"/>
<circle clip-path="url(#clip992)" cx="1921.26" cy="372.025" r="14.4" fill="#e26f46" fill-rule="evenodd" fill-opacity="1" stroke="#000000" stroke-opacity="1" stroke-width="3.2"/>
<circle clip-path="url(#clip992)" cx="949.346" cy="863.743" r="14.4" fill="#e26f46" fill-rule="evenodd" fill-opacity="1" stroke="#000000" stroke-opacity="1" stroke-width="3.2"/>
<circle clip-path="url(#clip992)" cx="634.402" cy="1229.77" r="14.4" fill="#e26f46" fill-rule="evenodd" fill-opacity="1" stroke="#000000" stroke-opacity="1" stroke-width="3.2"/>
<circle clip-path="url(#clip992)" cx="612.234" cy="941.063" r="14.4" fill="#e26f46" fill-rule="evenodd" fill-opacity="1" stroke="#000000" stroke-opacity="1" stroke-width="3.2"/>
<circle clip-path="url(#clip992)" cx="425.5" cy="998.536" r="14.4" fill="#e26f46" fill-rule="evenodd" fill-opacity="1" stroke="#000000" stroke-opacity="1" stroke-width="3.2"/>
<circle clip-path="url(#clip992)" cx="1820.18" cy="546.262" r="14.4" fill="#e26f46" fill-rule="evenodd" fill-opacity="1" stroke="#000000" stroke-opacity="1" stroke-width="3.2"/>
<circle clip-path="url(#clip992)" cx="240.392" cy="1445.72" r="14.4" fill="#e26f46" fill-rule="evenodd" fill-opacity="1" stroke="#000000" stroke-opacity="1" stroke-width="3.2"/>
<circle clip-path="url(#clip992)" cx="812.38" cy="872.008" r="14.4" fill="#e26f46" fill-rule="evenodd" fill-opacity="1" stroke="#000000" stroke-opacity="1" stroke-width="3.2"/>
<circle clip-path="url(#clip992)" cx="1887.26" cy="468.45" r="14.4" fill="#e26f46" fill-rule="evenodd" fill-opacity="1" stroke="#000000" stroke-opacity="1" stroke-width="3.2"/>
<circle clip-path="url(#clip992)" cx="715.497" cy="924.363" r="14.4" fill="#e26f46" fill-rule="evenodd" fill-opacity="1" stroke="#000000" stroke-opacity="1" stroke-width="3.2"/>
<circle clip-path="url(#clip992)" cx="1730.21" cy="558.839" r="14.4" fill="#e26f46" fill-rule="evenodd" fill-opacity="1" stroke="#000000" stroke-opacity="1" stroke-width="3.2"/>
<circle clip-path="url(#clip992)" cx="554.677" cy="995.021" r="14.4" fill="#e26f46" fill-rule="evenodd" fill-opacity="1" stroke="#000000" stroke-opacity="1" stroke-width="3.2"/>
<path clip-path="url(#clip990)" d="M251.33 250.738 L797.397 250.738 L797.397 95.2176 L251.33 95.2176  Z" fill="#ffffff" fill-rule="evenodd" fill-opacity="1"/>
<polyline clip-path="url(#clip990)" style="stroke:#000000; stroke-linecap:round; stroke-linejoin:round; stroke-width:4; stroke-opacity:1; fill:none" points="251.33,250.738 797.397,250.738 797.397,95.2176 251.33,95.2176 251.33,250.738 "/>
<circle clip-path="url(#clip990)" cx="347.947" cy="147.058" r="20.48" fill="#009af9" fill-rule="evenodd" fill-opacity="1" stroke="#000000" stroke-opacity="1" stroke-width="4.55111"/>
<path clip-path="url(#clip990)" d="M449.24 133.62 L449.24 146.606 L455.12 146.606 Q458.384 146.606 460.166 144.916 Q461.948 143.227 461.948 140.102 Q461.948 137 460.166 135.31 Q458.384 133.62 455.12 133.62 L449.24 133.62 M444.564 129.778 L455.12 129.778 Q460.93 129.778 463.893 132.416 Q466.879 135.032 466.879 140.102 Q466.879 145.217 463.893 147.833 Q460.93 150.449 455.12 150.449 L449.24 150.449 L449.24 164.338 L444.564 164.338 L444.564 129.778 Z" fill="#000000" fill-rule="nonzero" fill-opacity="1" /><path clip-path="url(#clip990)" d="M481.323 141.398 Q477.897 141.398 475.907 144.083 Q473.916 146.745 473.916 151.398 Q473.916 156.051 475.883 158.736 Q477.874 161.398 481.323 161.398 Q484.726 161.398 486.717 158.713 Q488.707 156.027 488.707 151.398 Q488.707 146.791 486.717 144.106 Q484.726 141.398 481.323 141.398 M481.323 137.787 Q486.879 137.787 490.05 141.398 Q493.221 145.009 493.221 151.398 Q493.221 157.764 490.05 161.398 Q486.879 165.009 481.323 165.009 Q475.745 165.009 472.573 161.398 Q469.425 157.764 469.425 151.398 Q469.425 145.009 472.573 141.398 Q475.745 137.787 481.323 137.787 Z" fill="#000000" fill-rule="nonzero" fill-opacity="1" /><path clip-path="url(#clip990)" d="M504.402 160.449 L504.402 174.199 L500.119 174.199 L500.119 138.412 L504.402 138.412 L504.402 142.347 Q505.744 140.032 507.781 138.921 Q509.842 137.787 512.689 137.787 Q517.411 137.787 520.351 141.537 Q523.314 145.287 523.314 151.398 Q523.314 157.509 520.351 161.259 Q517.411 165.009 512.689 165.009 Q509.842 165.009 507.781 163.898 Q505.744 162.763 504.402 160.449 M518.893 151.398 Q518.893 146.699 516.948 144.037 Q515.027 141.352 511.647 141.352 Q508.268 141.352 506.323 144.037 Q504.402 146.699 504.402 151.398 Q504.402 156.097 506.323 158.782 Q508.268 161.444 511.647 161.444 Q515.027 161.444 516.948 158.782 Q518.893 156.097 518.893 151.398 Z" fill="#000000" fill-rule="nonzero" fill-opacity="1" /><path clip-path="url(#clip990)" d="M550.304 133.62 L550.304 160.495 L555.953 160.495 Q563.105 160.495 566.415 157.254 Q569.749 154.014 569.749 147.023 Q569.749 140.078 566.415 136.861 Q563.105 133.62 555.953 133.62 L550.304 133.62 M545.628 129.778 L555.235 129.778 Q565.281 129.778 569.98 133.967 Q574.679 138.134 574.679 147.023 Q574.679 155.958 569.957 160.148 Q565.235 164.338 555.235 164.338 L545.628 164.338 L545.628 129.778 Z" fill="#000000" fill-rule="nonzero" fill-opacity="1" /><path clip-path="url(#clip990)" d="M593.73 151.305 Q588.568 151.305 586.577 152.486 Q584.587 153.666 584.587 156.514 Q584.587 158.782 586.068 160.125 Q587.573 161.444 590.142 161.444 Q593.684 161.444 595.813 158.944 Q597.966 156.421 597.966 152.254 L597.966 151.305 L593.73 151.305 M602.225 149.546 L602.225 164.338 L597.966 164.338 L597.966 160.402 Q596.508 162.763 594.332 163.898 Q592.156 165.009 589.008 165.009 Q585.026 165.009 582.665 162.787 Q580.327 160.541 580.327 156.791 Q580.327 152.416 583.244 150.194 Q586.184 147.972 591.994 147.972 L597.966 147.972 L597.966 147.555 Q597.966 144.615 596.022 143.018 Q594.1 141.398 590.605 141.398 Q588.383 141.398 586.276 141.93 Q584.17 142.463 582.226 143.527 L582.226 139.592 Q584.563 138.69 586.763 138.25 Q588.962 137.787 591.045 137.787 Q596.67 137.787 599.448 140.703 Q602.225 143.62 602.225 149.546 Z" fill="#000000" fill-rule="nonzero" fill-opacity="1" /><path clip-path="url(#clip990)" d="M615.211 131.051 L615.211 138.412 L623.985 138.412 L623.985 141.722 L615.211 141.722 L615.211 155.796 Q615.211 158.967 616.068 159.87 Q616.948 160.773 619.61 160.773 L623.985 160.773 L623.985 164.338 L619.61 164.338 Q614.679 164.338 612.804 162.509 Q610.929 160.657 610.929 155.796 L610.929 141.722 L607.804 141.722 L607.804 138.412 L610.929 138.412 L610.929 131.051 L615.211 131.051 Z" fill="#000000" fill-rule="nonzero" fill-opacity="1" /><path clip-path="url(#clip990)" d="M641.369 151.305 Q636.207 151.305 634.216 152.486 Q632.225 153.666 632.225 156.514 Q632.225 158.782 633.707 160.125 Q635.211 161.444 637.781 161.444 Q641.322 161.444 643.452 158.944 Q645.605 156.421 645.605 152.254 L645.605 151.305 L641.369 151.305 M649.864 149.546 L649.864 164.338 L645.605 164.338 L645.605 160.402 Q644.146 162.763 641.971 163.898 Q639.795 165.009 636.647 165.009 Q632.665 165.009 630.304 162.787 Q627.966 160.541 627.966 156.791 Q627.966 152.416 630.883 150.194 Q633.822 147.972 639.633 147.972 L645.605 147.972 L645.605 147.555 Q645.605 144.615 643.66 143.018 Q641.739 141.398 638.244 141.398 Q636.022 141.398 633.915 141.93 Q631.809 142.463 629.864 143.527 L629.864 139.592 Q632.202 138.69 634.401 138.25 Q636.6 137.787 638.684 137.787 Q644.309 137.787 647.086 140.703 Q649.864 143.62 649.864 149.546 Z" fill="#000000" fill-rule="nonzero" fill-opacity="1" /><circle clip-path="url(#clip990)" cx="347.947" cy="198.898" r="20.48" fill="#e26f46" fill-rule="evenodd" fill-opacity="1" stroke="#000000" stroke-opacity="1" stroke-width="4.55111"/>
<path clip-path="url(#clip990)" d="M466.809 182.752 L466.809 187.312 Q464.147 186.039 461.786 185.414 Q459.425 184.789 457.226 184.789 Q453.407 184.789 451.323 186.27 Q449.263 187.752 449.263 190.483 Q449.263 192.775 450.629 193.955 Q452.018 195.113 455.86 195.83 L458.685 196.409 Q463.916 197.405 466.393 199.928 Q468.893 202.428 468.893 206.641 Q468.893 211.664 465.513 214.256 Q462.157 216.849 455.652 216.849 Q453.198 216.849 450.421 216.293 Q447.666 215.738 444.703 214.65 L444.703 209.835 Q447.55 211.432 450.282 212.242 Q453.013 213.053 455.652 213.053 Q459.657 213.053 461.833 211.479 Q464.009 209.904 464.009 206.988 Q464.009 204.442 462.434 203.006 Q460.884 201.571 457.319 200.854 L454.472 200.298 Q449.24 199.256 446.902 197.034 Q444.564 194.812 444.564 190.854 Q444.564 186.27 447.782 183.631 Q451.023 180.993 456.694 180.993 Q459.124 180.993 461.647 181.432 Q464.171 181.872 466.809 182.752 Z" fill="#000000" fill-rule="nonzero" fill-opacity="1" /><path clip-path="url(#clip990)" d="M487.782 203.145 Q482.62 203.145 480.629 204.326 Q478.638 205.506 478.638 208.354 Q478.638 210.622 480.12 211.965 Q481.624 213.284 484.194 213.284 Q487.735 213.284 489.865 210.784 Q492.018 208.261 492.018 204.094 L492.018 203.145 L487.782 203.145 M496.277 201.386 L496.277 216.178 L492.018 216.178 L492.018 212.242 Q490.559 214.603 488.383 215.738 Q486.208 216.849 483.059 216.849 Q479.078 216.849 476.717 214.627 Q474.379 212.381 474.379 208.631 Q474.379 204.256 477.296 202.034 Q480.235 199.812 486.045 199.812 L492.018 199.812 L492.018 199.395 Q492.018 196.455 490.073 194.858 Q488.152 193.238 484.657 193.238 Q482.434 193.238 480.328 193.77 Q478.221 194.303 476.277 195.367 L476.277 191.432 Q478.615 190.53 480.814 190.09 Q483.013 189.627 485.096 189.627 Q490.721 189.627 493.499 192.543 Q496.277 195.46 496.277 201.386 Z" fill="#000000" fill-rule="nonzero" fill-opacity="1" /><path clip-path="url(#clip990)" d="M525.235 195.229 Q526.832 192.358 529.054 190.993 Q531.277 189.627 534.286 189.627 Q538.337 189.627 540.536 192.474 Q542.735 195.298 542.735 200.529 L542.735 216.178 L538.453 216.178 L538.453 200.668 Q538.453 196.942 537.133 195.136 Q535.814 193.33 533.105 193.33 Q529.795 193.33 527.874 195.53 Q525.953 197.729 525.953 201.525 L525.953 216.178 L521.67 216.178 L521.67 200.668 Q521.67 196.918 520.351 195.136 Q519.031 193.33 516.277 193.33 Q513.013 193.33 511.092 195.553 Q509.17 197.752 509.17 201.525 L509.17 216.178 L504.888 216.178 L504.888 190.252 L509.17 190.252 L509.17 194.28 Q510.629 191.895 512.666 190.761 Q514.703 189.627 517.504 189.627 Q520.328 189.627 522.295 191.062 Q524.286 192.497 525.235 195.229 Z" fill="#000000" fill-rule="nonzero" fill-opacity="1" /><path clip-path="url(#clip990)" d="M555.351 212.289 L555.351 226.039 L551.068 226.039 L551.068 190.252 L555.351 190.252 L555.351 194.187 Q556.693 191.872 558.73 190.761 Q560.79 189.627 563.638 189.627 Q568.36 189.627 571.3 193.377 Q574.263 197.127 574.263 203.238 Q574.263 209.349 571.3 213.099 Q568.36 216.849 563.638 216.849 Q560.79 216.849 558.73 215.738 Q556.693 214.603 555.351 212.289 M569.841 203.238 Q569.841 198.539 567.897 195.877 Q565.976 193.192 562.596 193.192 Q559.216 193.192 557.272 195.877 Q555.351 198.539 555.351 203.238 Q555.351 207.937 557.272 210.622 Q559.216 213.284 562.596 213.284 Q565.976 213.284 567.897 210.622 Q569.841 207.937 569.841 203.238 Z" fill="#000000" fill-rule="nonzero" fill-opacity="1" /><path clip-path="url(#clip990)" d="M581.323 180.159 L585.582 180.159 L585.582 216.178 L581.323 216.178 L581.323 180.159 Z" fill="#000000" fill-rule="nonzero" fill-opacity="1" /><path clip-path="url(#clip990)" d="M616.67 202.15 L616.67 204.233 L597.087 204.233 Q597.364 208.631 599.725 210.946 Q602.11 213.238 606.346 213.238 Q608.799 213.238 611.091 212.636 Q613.406 212.034 615.674 210.83 L615.674 214.858 Q613.383 215.83 610.975 216.34 Q608.568 216.849 606.091 216.849 Q599.887 216.849 596.253 213.238 Q592.642 209.627 592.642 203.469 Q592.642 197.104 596.068 193.377 Q599.517 189.627 605.35 189.627 Q610.582 189.627 613.614 193.006 Q616.67 196.363 616.67 202.15 M612.411 200.9 Q612.364 197.405 610.443 195.321 Q608.545 193.238 605.397 193.238 Q601.832 193.238 599.679 195.252 Q597.55 197.266 597.225 200.923 L612.411 200.9 Z" fill="#000000" fill-rule="nonzero" fill-opacity="1" /><path clip-path="url(#clip990)" d="M640.721 194.187 L640.721 180.159 L644.98 180.159 L644.98 216.178 L640.721 216.178 L640.721 212.289 Q639.378 214.603 637.318 215.738 Q635.281 216.849 632.41 216.849 Q627.711 216.849 624.748 213.099 Q621.809 209.349 621.809 203.238 Q621.809 197.127 624.748 193.377 Q627.711 189.627 632.41 189.627 Q635.281 189.627 637.318 190.761 Q639.378 191.872 640.721 194.187 M626.207 203.238 Q626.207 207.937 628.128 210.622 Q630.072 213.284 633.452 213.284 Q636.832 213.284 638.776 210.622 Q640.721 207.937 640.721 203.238 Q640.721 198.539 638.776 195.877 Q636.832 193.192 633.452 193.192 Q630.072 193.192 628.128 195.877 Q626.207 198.539 626.207 203.238 Z" fill="#000000" fill-rule="nonzero" fill-opacity="1" /><path clip-path="url(#clip990)" d="M673.683 185.46 L673.683 212.335 L679.331 212.335 Q686.484 212.335 689.794 209.094 Q693.128 205.854 693.128 198.863 Q693.128 191.918 689.794 188.701 Q686.484 185.46 679.331 185.46 L673.683 185.46 M669.007 181.618 L678.614 181.618 Q688.66 181.618 693.359 185.807 Q698.058 189.974 698.058 198.863 Q698.058 207.798 693.336 211.988 Q688.614 216.178 678.614 216.178 L669.007 216.178 L669.007 181.618 Z" fill="#000000" fill-rule="nonzero" fill-opacity="1" /><path clip-path="url(#clip990)" d="M717.109 203.145 Q711.947 203.145 709.956 204.326 Q707.966 205.506 707.966 208.354 Q707.966 210.622 709.447 211.965 Q710.952 213.284 713.521 213.284 Q717.063 213.284 719.192 210.784 Q721.345 208.261 721.345 204.094 L721.345 203.145 L717.109 203.145 M725.604 201.386 L725.604 216.178 L721.345 216.178 L721.345 212.242 Q719.887 214.603 717.711 215.738 Q715.535 216.849 712.387 216.849 Q708.405 216.849 706.044 214.627 Q703.706 212.381 703.706 208.631 Q703.706 204.256 706.623 202.034 Q709.563 199.812 715.373 199.812 L721.345 199.812 L721.345 199.395 Q721.345 196.455 719.401 194.858 Q717.479 193.238 713.984 193.238 Q711.762 193.238 709.655 193.77 Q707.549 194.303 705.604 195.367 L705.604 191.432 Q707.942 190.53 710.141 190.09 Q712.341 189.627 714.424 189.627 Q720.049 189.627 722.827 192.543 Q725.604 195.46 725.604 201.386 Z" fill="#000000" fill-rule="nonzero" fill-opacity="1" /><path clip-path="url(#clip990)" d="M738.59 182.891 L738.59 190.252 L747.364 190.252 L747.364 193.562 L738.59 193.562 L738.59 207.636 Q738.59 210.807 739.447 211.71 Q740.327 212.613 742.989 212.613 L747.364 212.613 L747.364 216.178 L742.989 216.178 Q738.058 216.178 736.183 214.349 Q734.308 212.497 734.308 207.636 L734.308 193.562 L731.183 193.562 L731.183 190.252 L734.308 190.252 L734.308 182.891 L738.59 182.891 Z" fill="#000000" fill-rule="nonzero" fill-opacity="1" /><path clip-path="url(#clip990)" d="M764.748 203.145 Q759.586 203.145 757.595 204.326 Q755.604 205.506 755.604 208.354 Q755.604 210.622 757.086 211.965 Q758.59 213.284 761.16 213.284 Q764.701 213.284 766.831 210.784 Q768.984 208.261 768.984 204.094 L768.984 203.145 L764.748 203.145 M773.243 201.386 L773.243 216.178 L768.984 216.178 L768.984 212.242 Q767.525 214.603 765.35 215.738 Q763.174 216.849 760.025 216.849 Q756.044 216.849 753.683 214.627 Q751.345 212.381 751.345 208.631 Q751.345 204.256 754.262 202.034 Q757.201 199.812 763.012 199.812 L768.984 199.812 L768.984 199.395 Q768.984 196.455 767.039 194.858 Q765.118 193.238 761.623 193.238 Q759.4 193.238 757.294 193.77 Q755.188 194.303 753.243 195.367 L753.243 191.432 Q755.581 190.53 757.78 190.09 Q759.979 189.627 762.063 189.627 Q767.687 189.627 770.465 192.543 Q773.243 195.46 773.243 201.386 Z" fill="#000000" fill-rule="nonzero" fill-opacity="1" /></svg>
