<?xml version="1.0" encoding="UTF-8" standalone="no"?>
<!-- Created with Inkscape (http://www.inkscape.org/) -->

<svg
   width="98.732193mm"
   height="45.147362mm"
   viewBox="0 0 98.732193 45.147361"
   version="1.1"
   id="svg1"
   inkscape:export-filename="contaminated_density.svg"
   inkscape:export-xdpi="96"
   inkscape:export-ydpi="96"
   sodipodi:docname="contaminated_density.svg"
   inkscape:version="1.3 (0e150ed6c4, 2023-07-21)"
   xmlns:inkscape="http://www.inkscape.org/namespaces/inkscape"
   xmlns:sodipodi="http://sodipodi.sourceforge.net/DTD/sodipodi-0.dtd"
   xmlns="http://www.w3.org/2000/svg"
   xmlns:svg="http://www.w3.org/2000/svg"
   xmlns:ns4="http://www.iki.fi/pav/software/textext/">
  <sodipodi:namedview
     id="namedview1"
     pagecolor="#505050"
     bordercolor="#eeeeee"
     borderopacity="1"
     inkscape:showpageshadow="0"
     inkscape:pageopacity="0"
     inkscape:pagecheckerboard="0"
     inkscape:deskcolor="#505050"
     inkscape:document-units="mm"
     inkscape:zoom="2.0989207"
     inkscape:cx="175.80464"
     inkscape:cy="121.72923"
     inkscape:window-width="1920"
     inkscape:window-height="1009"
     inkscape:window-x="-8"
     inkscape:window-y="-8"
     inkscape:window-maximized="1"
     inkscape:current-layer="layer2"
     inkscape:export-bgcolor="#515151ff" />
  <defs
     id="defs1">
    <inkscape:path-effect
       effect="bspline"
       id="path-effect10"
       is_visible="true"
       lpeversion="1.3"
       weight="33.333333"
       steps="2"
       helper_size="0"
       apply_no_weight="true"
       apply_with_weight="true"
       only_selected="false"
       uniform="false" />
    <marker
       style="overflow:visible"
       id="marker5_Fnone_S-6adbea"
       refX="0"
       refY="0"
       orient="auto-start-reverse"
       inkscape:stockid="Triangle arrow"
       markerWidth="1"
       markerHeight="1"
       viewBox="0 0 1 1"
       inkscape:isstock="true"
       inkscape:collect="always"
       preserveAspectRatio="xMidYMid">
      <path
         transform="scale(0.5)"
         style="fill:#6adbea;fill-rule:evenodd;stroke:#6adbea;stroke-width:1pt"
         d="M 5.77,0 -2.88,5 V -5 Z"
         id="path7" />
    </marker>
    <inkscape:path-effect
       effect="bspline"
       id="path-effect2"
       is_visible="true"
       lpeversion="1.3"
       weight="33.333333"
       steps="2"
       helper_size="0"
       apply_no_weight="true"
       apply_with_weight="true"
       only_selected="false"
       uniform="false" />
  </defs>
  <g
     inkscape:groupmode="layer"
     id="layer2"
     inkscape:label="Layer 2">
    <rect
       style="fill:#252525;fill-opacity:1;stroke:none;stroke-width:0.2"
       id="rect1"
       width="115.72018"
       height="61.011517"
       x="-7.5634108"
       y="-6.3028412" />
  </g>
  <g
     inkscape:label="Layer 1"
     inkscape:groupmode="layer"
     id="layer1"
     transform="translate(-17.114045,-98.766792)">
    <path
       style="fill:none;stroke:#6adbea;stroke-width:0.2;stroke-dasharray:none;stroke-opacity:1;marker-end:url(#marker5_Fnone_S-6adbea)"
       d="M 17.114045,133.52521 H 110.70648"
       id="path4" />
    <g
       transform="matrix(0.45138236,0,0,0.45138236,24.921631,98.766961)"
       ns4:version="1.9.0"
       ns4:texconverter="pdflatex"
       ns4:pdfconverter="inkscape"
       ns4:text="$p(x)$"
       ns4:preamble="C:\Users\phucn\AppData\Roaming\inkscape\extensions\textext\default_packages.tex"
       ns4:scale="0.8142578566196823"
       ns4:alignment="middle center"
       ns4:stroke-to-path="0"
       id="g7218"
       ns4:jacobian_sqrt="0.287252"
       style="fill:#6adbea;fill-opacity:1;stroke-width:0.636383">
      <defs
         id="id-04fd1494-6b6a-41e6-b79c-e7c8cb7e3a53" />
      <g
         fill="#000000"
         fill-opacity="1"
         id="id-716b2ddb-b6c0-47ef-a220-c89192f59623"
         transform="translate(-148.4,-127.281)"
         style="fill:#6adbea;fill-opacity:1;stroke-width:0.636383">
        <g
           transform="translate(148.712,134.765)"
           id="g5162"
           style="fill:#6adbea;fill-opacity:1;stroke-width:0.636383">
          <path
             d="M 0.453125,1.21875 C 0.375,1.5625 0.34375,1.625 -0.09375,1.625 c -0.109375,0 -0.21875,0 -0.21875,0.1875 0,0.078125 0.046875,0.125 0.125,0.125 0.265625,0 0.5625,-0.03125 0.828125,-0.03125 0.34375,0 0.671875,0.03125 1,0.03125 0.046875,0 0.171875,0 0.171875,-0.203125 C 1.8125,1.625 1.71875,1.625 1.578125,1.625 c -0.5,0 -0.5,-0.0625 -0.5,-0.15625 0,-0.125 0.421875,-1.75 0.484375,-2 0.125,0.296875 0.40625,0.640625 0.921875,0.640625 1.15625,0 2.40625,-1.453125 2.40625,-2.921875 0,-0.9375 -0.578125,-1.59375 -1.328125,-1.59375 -0.5,0 -0.984375,0.359375 -1.3125,0.75 -0.09375,-0.546875 -0.53125,-0.75 -0.890625,-0.75 -0.46875,0 -0.65625,0.390625 -0.734375,0.5625 C 0.4375,-3.5 0.3125,-2.90625 0.3125,-2.875 c 0,0.109375 0.09375,0.109375 0.109375,0.109375 0.109375,0 0.109375,-0.015625 0.171875,-0.234375 0.171875,-0.703125 0.375,-1.1875 0.734375,-1.1875 0.171875,0 0.3125,0.078125 0.3125,0.453125 0,0.234375 -0.03125,0.34375 -0.078125,0.515625 z m 1.75,-4.328125 C 2.265625,-3.375 2.546875,-3.65625 2.71875,-3.8125 c 0.359375,-0.296875 0.640625,-0.375 0.8125,-0.375 0.390625,0 0.640625,0.34375 0.640625,0.9375 0,0.59375 -0.328125,1.734375 -0.515625,2.109375 -0.34375,0.703125 -0.8125,1.03125 -1.1875,1.03125 C 1.8125,-0.109375 1.6875,-0.9375 1.6875,-1 c 0,-0.015625 0,-0.03125 0.03125,-0.15625 z m 0,0"
             id="id-d13c8810-1901-4dc0-a012-515f2faf83dc"
             style="fill:#6adbea;fill-opacity:1;stroke-width:0.636383" />
        </g>
      </g>
      <g
         fill="#000000"
         fill-opacity="1"
         id="id-149b56b6-cf8e-4307-90d9-ef9c4b20010b"
         transform="translate(-148.4,-127.281)"
         style="fill:#6adbea;fill-opacity:1;stroke-width:0.636383">
        <g
           transform="translate(153.725,134.765)"
           id="g6674"
           style="fill:#6adbea;fill-opacity:1;stroke-width:0.636383">
          <path
             d="m 3.296875,2.390625 c 0,-0.03125 0,-0.046875 -0.171875,-0.21875 C 1.890625,0.921875 1.5625,-0.96875 1.5625,-2.5 c 0,-1.734375 0.375,-3.46875 1.609375,-4.703125 0.125,-0.125 0.125,-0.140625 0.125,-0.171875 0,-0.078125 -0.03125,-0.109375 -0.09375,-0.109375 -0.109375,0 -1,0.6875 -1.59375,1.953125 -0.5,1.09375 -0.625,2.203125 -0.625,3.03125 0,0.78125 0.109375,1.984375 0.65625,3.125 C 2.25,1.84375 3.09375,2.5 3.203125,2.5 c 0.0625,0 0.09375,-0.03125 0.09375,-0.109375 z m 0,0"
             id="id-44e71732-97e7-4abd-91b9-c8b2ead09e00"
             style="fill:#6adbea;fill-opacity:1;stroke-width:0.636383" />
        </g>
      </g>
      <g
         fill="#000000"
         fill-opacity="1"
         id="id-639ec7c6-6b1b-43b5-a328-da9684e72714"
         transform="translate(-148.4,-127.281)"
         style="fill:#6adbea;fill-opacity:1;stroke-width:0.636383">
        <g
           transform="translate(157.599,134.765)"
           id="g3495"
           style="fill:#6adbea;fill-opacity:1;stroke-width:0.636383">
          <path
             d="M 3.328125,-3.015625 C 3.390625,-3.265625 3.625,-4.1875 4.3125,-4.1875 c 0.046875,0 0.296875,0 0.5,0.125 C 4.53125,-4 4.34375,-3.765625 4.34375,-3.515625 c 0,0.15625 0.109375,0.34375 0.375,0.34375 0.21875,0 0.53125,-0.171875 0.53125,-0.578125 0,-0.515625 -0.578125,-0.65625 -0.921875,-0.65625 -0.578125,0 -0.921875,0.53125 -1.046875,0.75 -0.25,-0.65625 -0.78125,-0.75 -1.078125,-0.75 -1.03125,0 -1.609375,1.28125 -1.609375,1.53125 0,0.109375 0.109375,0.109375 0.125,0.109375 0.078125,0 0.109375,-0.03125 0.125,-0.109375 0.34375,-1.0625 1,-1.3125 1.34375,-1.3125 0.1875,0 0.53125,0.09375 0.53125,0.671875 0,0.3125 -0.171875,0.96875 -0.53125,2.375 -0.15625,0.609375 -0.515625,1.03125 -0.953125,1.03125 -0.0625,0 -0.28125,0 -0.5,-0.125 0.25,-0.0625 0.46875,-0.265625 0.46875,-0.546875 0,-0.265625 -0.21875,-0.34375 -0.359375,-0.34375 -0.3125,0 -0.546875,0.25 -0.546875,0.578125 0,0.453125 0.484375,0.65625 0.921875,0.65625 0.671875,0 1.03125,-0.703125 1.046875,-0.75 0.125,0.359375 0.484375,0.75 1.078125,0.75 1.03125,0 1.59375,-1.28125 1.59375,-1.53125 0,-0.109375 -0.078125,-0.109375 -0.109375,-0.109375 -0.09375,0 -0.109375,0.046875 -0.140625,0.109375 -0.328125,1.078125 -1,1.3125 -1.3125,1.3125 -0.390625,0 -0.546875,-0.3125 -0.546875,-0.65625 0,-0.21875 0.046875,-0.4375 0.15625,-0.875 z m 0,0"
             id="id-f3625f41-67cf-4bce-b937-48c22b2cec72"
             style="fill:#6adbea;fill-opacity:1;stroke-width:0.636383" />
        </g>
      </g>
      <g
         fill="#000000"
         fill-opacity="1"
         id="id-c6f19bdc-a165-4273-9e04-e68aef226480"
         transform="translate(-148.4,-127.281)"
         style="fill:#6adbea;fill-opacity:1;stroke-width:0.636383">
        <g
           transform="translate(163.293,134.765)"
           id="g6137"
           style="fill:#6adbea;fill-opacity:1;stroke-width:0.636383">
          <path
             d="m 2.875,-2.5 c 0,-0.765625 -0.109375,-1.96875 -0.65625,-3.109375 -0.59375,-1.21875 -1.453125,-1.875 -1.546875,-1.875 -0.0625,0 -0.109375,0.046875 -0.109375,0.109375 0,0.03125 0,0.046875 0.1875,0.234375 0.984375,0.984375 1.546875,2.5625 1.546875,4.640625 0,1.71875 -0.359375,3.46875 -1.59375,4.71875 C 0.5625,2.34375 0.5625,2.359375 0.5625,2.390625 0.5625,2.453125 0.609375,2.5 0.671875,2.5 0.765625,2.5 1.671875,1.8125 2.25,0.546875 2.765625,-0.546875 2.875,-1.65625 2.875,-2.5 Z m 0,0"
             id="id-6fd78eff-4d43-4ef6-885c-3f206f417c31"
             style="fill:#6adbea;fill-opacity:1;stroke-width:0.636383" />
        </g>
      </g>
    </g>
    <g
       transform="matrix(0.67807186,0,0,0.67807186,112.48775,131.64822)"
       ns4:version="1.9.0"
       ns4:texconverter="pdflatex"
       ns4:pdfconverter="inkscape"
       ns4:text="$x$"
       ns4:preamble="C:\Users\phucn\AppData\Roaming\inkscape\extensions\textext\default_packages.tex"
       ns4:scale="0.8142578566196823"
       ns4:alignment="middle center"
       ns4:stroke-to-path="0"
       id="g8025"
       ns4:jacobian_sqrt="0.287252"
       style="fill:#6adbea;fill-opacity:1;stroke-width:0.423631">
      <defs
         id="id-7d052edf-77e7-46b1-aaab-22571fafd0c4" />
      <g
         fill="#000000"
         fill-opacity="1"
         id="id-78fb67e8-87c1-492b-b7d2-e632326b5ca6"
         transform="translate(-149.009,-130.359)"
         style="fill:#6adbea;fill-opacity:1;stroke-width:0.423631">
        <g
           transform="translate(148.712,134.765)"
           id="g634"
           style="fill:#6adbea;fill-opacity:1;stroke-width:0.423631">
          <path
             d="M 3.328125,-3.015625 C 3.390625,-3.265625 3.625,-4.1875 4.3125,-4.1875 c 0.046875,0 0.296875,0 0.5,0.125 C 4.53125,-4 4.34375,-3.765625 4.34375,-3.515625 c 0,0.15625 0.109375,0.34375 0.375,0.34375 0.21875,0 0.53125,-0.171875 0.53125,-0.578125 0,-0.515625 -0.578125,-0.65625 -0.921875,-0.65625 -0.578125,0 -0.921875,0.53125 -1.046875,0.75 -0.25,-0.65625 -0.78125,-0.75 -1.078125,-0.75 -1.03125,0 -1.609375,1.28125 -1.609375,1.53125 0,0.109375 0.109375,0.109375 0.125,0.109375 0.078125,0 0.109375,-0.03125 0.125,-0.109375 0.34375,-1.0625 1,-1.3125 1.34375,-1.3125 0.1875,0 0.53125,0.09375 0.53125,0.671875 0,0.3125 -0.171875,0.96875 -0.53125,2.375 -0.15625,0.609375 -0.515625,1.03125 -0.953125,1.03125 -0.0625,0 -0.28125,0 -0.5,-0.125 0.25,-0.0625 0.46875,-0.265625 0.46875,-0.546875 0,-0.265625 -0.21875,-0.34375 -0.359375,-0.34375 -0.3125,0 -0.546875,0.25 -0.546875,0.578125 0,0.453125 0.484375,0.65625 0.921875,0.65625 0.671875,0 1.03125,-0.703125 1.046875,-0.75 0.125,0.359375 0.484375,0.75 1.078125,0.75 1.03125,0 1.59375,-1.28125 1.59375,-1.53125 0,-0.109375 -0.078125,-0.109375 -0.109375,-0.109375 -0.09375,0 -0.109375,0.046875 -0.140625,0.109375 -0.328125,1.078125 -1,1.3125 -1.3125,1.3125 -0.390625,0 -0.546875,-0.3125 -0.546875,-0.65625 0,-0.21875 0.046875,-0.4375 0.15625,-0.875 z m 0,0"
             id="id-93ae45ea-0d15-448e-afed-18e8d254fbf7"
             style="fill:#6adbea;fill-opacity:1;stroke-width:0.423631" />
        </g>
      </g>
    </g>
    <path
       style="fill:#6adbea;fill-opacity:1;stroke:#6adbea;stroke-width:0.2;stroke-dasharray:none;stroke-opacity:1;marker-end:url(#marker5_Fnone_S-6adbea)"
       d="M 29.058223,143.86943 28.70168,143.15635 V 106.07592"
       id="path8" />
    <path
       style="fill:none;fill-opacity:1;stroke:#6adbea;stroke-width:0.2;stroke-dasharray:none;stroke-opacity:1"
       d="m 17.82713,132.46007 c 5.82353,0.0594 11.647059,0.11885 16.133584,-4.30831 4.486526,-4.42716 7.635924,-13.34055 10.547715,-13.37018 2.911792,-0.0296 5.585808,8.82435 9.804953,13.28113 4.219146,4.45678 9.983136,4.51621 15.271899,4.57563 5.288763,0.0594 10.101991,0.11885 13.756578,-0.4754 3.654587,-0.59425 6.150337,-1.84213 8.616448,-1.84212 2.466111,2e-5 4.902437,1.24789 7.962795,1.90155 3.060358,0.65366 6.744558,0.71309 10.428838,0.77251"
       id="path9"
       inkscape:path-effect="#path-effect10"
       inkscape:original-d="m 17.82713,132.46007 c 5.82353,0.0594 11.647059,0.11885 17.470588,0.17827 3.149523,-8.91374 6.29892,-17.82713 9.448381,-26.7407 2.674122,8.85432 5.348136,17.70829 8.022206,26.56243 5.764223,0.0594 11.528213,0.11885 17.292317,0.17827 4.813422,0.0594 9.62665,0.11885 14.439977,0.17827 2.495849,-1.24792 4.991597,-2.4958 7.487396,-3.7437 2.436421,1.24793 4.872749,2.4958 7.309122,3.7437 3.684343,0.0594 7.368543,0.11885 11.052823,0.17827" />
  </g>
</svg>
